<?xml version="1.0" standalone="no"?>
<!DOCTYPE svg PUBLIC "-//W3C//DTD SVG 20010904//EN"
 "http://www.w3.org/TR/2001/REC-SVG-20010904/DTD/svg10.dtd">
<svg version="1.0" xmlns="http://www.w3.org/2000/svg"
 width="512.000000pt" height="512.000000pt" viewBox="0 0 512.000000 512.000000"
 preserveAspectRatio="xMidYMid meet">

<g transform="translate(0.000000,512.000000) scale(0.100000,-0.100000)"
fill="#000000" stroke="none">
<path d="M3275 4560 l-240 -240 243 0 242 0 0 240 c0 132 -1 240 -3 240 -1 0
-110 -108 -242 -240z"/>
<path d="M3680 4561 l0 -239 123 -4 c107 -4 128 -8 173 -31 75 -38 107 -69
145 -139 l34 -63 3 -202 4 -203 134 0 c130 0 136 -1 159 -25 33 -32 33 -78 0
-110 -23 -24 -29 -25 -160 -25 l-135 0 0 -80 0 -80 135 0 c131 0 137 -1 160
-25 33 -32 33 -78 0 -110 -23 -24 -29 -25 -160 -25 l-135 0 0 -80 0 -80 135 0
c131 0 137 -1 160 -25 16 -15 25 -36 25 -55 0 -19 -9 -40 -25 -55 -23 -24 -29
-25 -160 -25 l-135 0 0 -80 0 -80 135 0 c131 0 137 -1 160 -25 33 -32 33 -78
0 -110 -23 -24 -29 -25 -160 -25 l-135 0 0 -160 0 -161 269 3 c254 3 271 4
297 24 15 11 37 33 48 48 21 27 21 31 21 1206 0 1175 0 1179 -21 1206 -11 15
-33 37 -48 48 -27 20 -40 21 -537 24 l-509 3 0 -240z"/>
<path d="M2475 3920 l-240 -240 243 0 242 0 0 240 c0 132 -1 240 -3 240 -1 0
-110 -108 -242 -240z"/>
<path d="M2880 3921 l0 -239 123 -4 c107 -4 128 -8 173 -31 75 -38 107 -69
145 -139 l34 -63 3 -202 4 -203 134 0 c130 0 136 -1 159 -25 33 -32 33 -78 0
-110 -23 -24 -29 -25 -160 -25 l-135 0 0 -80 0 -80 135 0 c131 0 137 -1 160
-25 33 -32 33 -78 0 -110 -23 -24 -29 -25 -160 -25 l-135 0 0 -80 0 -80 135 0
c131 0 137 -1 160 -25 16 -15 25 -36 25 -55 0 -19 -9 -40 -25 -55 -23 -24 -29
-25 -160 -25 l-135 0 0 -80 0 -80 135 0 c131 0 137 -1 160 -25 33 -32 33 -78
0 -110 -23 -24 -29 -25 -160 -25 l-135 0 0 -160 0 -161 269 3 c254 3 271 4
297 24 15 11 37 33 48 48 21 27 21 31 21 1206 0 1175 0 1179 -21 1206 -11 15
-33 37 -48 48 -27 20 -40 21 -537 24 l-509 3 0 -240z"/>
<path d="M1675 3280 l-240 -240 243 0 242 0 0 240 c0 132 -1 240 -3 240 -1 0
-110 -108 -242 -240z"/>
<path d="M2080 3281 l0 -239 47 -7 c53 -8 125 -41 170 -79 16 -14 45 -53 64
-88 l34 -63 3 -202 4 -203 214 0 c215 0 215 0 239 -25 33 -32 33 -78 0 -110
-24 -25 -24 -25 -240 -25 l-215 0 0 -80 0 -80 215 0 c216 0 216 0 240 -25 33
-32 33 -78 0 -110 -24 -25 -24 -25 -240 -25 l-215 0 0 -80 0 -80 215 0 c216 0
216 0 240 -25 16 -15 25 -36 25 -55 0 -19 -9 -40 -25 -55 -24 -25 -24 -25
-240 -25 l-215 0 0 -80 0 -80 215 0 c216 0 216 0 240 -25 33 -32 33 -78 0
-110 -24 -25 -24 -25 -240 -25 l-215 0 0 -160 0 -161 349 3 c335 3 351 4 377
24 15 11 37 33 48 48 21 27 21 31 21 1206 0 1175 0 1179 -21 1206 -11 15 -33
37 -48 48 -27 20 -40 21 -537 24 l-509 3 0 -240z"/>
<path d="M635 2560 l-320 -320 323 0 322 0 0 320 c0 176 -1 320 -3 320 -1 0
-146 -144 -322 -320z"/>
<path d="M1118 2531 c-3 -335 -4 -351 -24 -377 -11 -15 -33 -37 -48 -48 -26
-20 -42 -21 -377 -24 l-349 -3 2 -829 c3 -819 3 -829 24 -856 11 -15 33 -37
48 -48 27 -21 34 -21 886 -21 852 0 859 0 886 21 15 11 37 33 48 48 21 27 21
31 21 1206 0 1175 0 1179 -21 1206 -11 15 -33 37 -48 48 -27 20 -40 21 -536
24 l-509 3 -3 -350z m777 -796 c33 -32 33 -78 0 -110 l-24 -25 -591 0 -591 0
-24 25 c-16 15 -25 36 -25 55 0 19 9 40 25 55 l24 25 591 0 591 0 24 -25z m0
-320 c33 -32 33 -78 0 -110 l-24 -25 -591 0 -591 0 -24 25 c-16 15 -25 36 -25
55 0 19 9 40 25 55 l24 25 591 0 591 0 24 -25z m0 -320 c33 -32 33 -78 0 -110
l-24 -25 -591 0 -591 0 -24 25 c-16 15 -25 36 -25 55 0 19 9 40 25 55 l24 25
591 0 591 0 24 -25z m0 -320 c33 -32 33 -78 0 -110 l-24 -25 -591 0 -591 0
-24 25 c-16 15 -25 36 -25 55 0 19 9 40 25 55 l24 25 591 0 591 0 24 -25z"/>
</g>
</svg>
