<svg version="1.0" xmlns="http://www.w3.org/2000/svg" width="682.667" height="682.667" viewBox="0 0 512 512"><path d="m327.5 56-24 24H352V56c0-13.2-.1-24-.3-24-.1 0-11 10.8-24.2 24m40.5-.1v23.9l12.3.4c10.7.4 12.8.8 17.3 3.1 7.5 3.8 10.7 6.9 14.5 13.9l3.4 6.3.3 20.2.4 20.3h13.4c13 0 13.6.1 15.9 2.5 3.3 3.2 3.3 7.8 0 11-2.3 2.4-2.9 2.5-16 2.5H416v16h13.5c13.1 0 13.7.1 16 2.5 3.3 3.2 3.3 7.8 0 11-2.3 2.4-2.9 2.5-16 2.5H416v16h13.5c13.1 0 13.7.1 16 2.5 1.6 1.5 2.5 3.6 2.5 5.5s-.9 4-2.5 5.5c-2.3 2.4-2.9 2.5-16 2.5H416v16h13.5c13.1 0 13.7.1 16 2.5 3.3 3.2 3.3 7.8 0 11-2.3 2.4-2.9 2.5-16 2.5H416v32.1l26.9-.3c25.4-.3 27.1-.4 29.7-2.4 1.5-1.1 3.7-3.3 4.8-4.8 2.1-2.7 2.1-3.1 2.1-120.6s0-117.9-2.1-120.6c-1.1-1.5-3.3-3.7-4.8-4.8-2.7-2-4-2.1-53.7-2.4l-50.9-.3zM247.5 120l-24 24H272v-24c0-13.2-.1-24-.3-24-.1 0-11 10.8-24.2 24"/><path d="M288 119.9v23.9l12.3.4c10.7.4 12.8.8 17.3 3.1 7.5 3.8 10.7 6.9 14.5 13.9l3.4 6.3.3 20.2.4 20.3h13.4c13 0 13.6.1 15.9 2.5 3.3 3.2 3.3 7.8 0 11-2.3 2.4-2.9 2.5-16 2.5H336v16h13.5c13.1 0 13.7.1 16 2.5 3.3 3.2 3.3 7.8 0 11-2.3 2.4-2.9 2.5-16 2.5H336v16h13.5c13.1 0 13.7.1 16 2.5 1.6 1.5 2.5 3.6 2.5 5.5s-.9 4-2.5 5.5c-2.3 2.4-2.9 2.5-16 2.5H336v16h13.5c13.1 0 13.7.1 16 2.5 3.3 3.2 3.3 7.8 0 11-2.3 2.4-2.9 2.5-16 2.5H336v32.1l26.9-.3c25.4-.3 27.1-.4 29.7-2.4 1.5-1.1 3.7-3.3 4.8-4.8 2.1-2.7 2.1-3.1 2.1-120.6s0-117.9-2.1-120.6c-1.1-1.5-3.3-3.7-4.8-4.8-2.7-2-4-2.1-53.7-2.4l-50.9-.3zM167.5 184l-24 24H192v-24c0-13.2-.1-24-.3-24-.1 0-11 10.8-24.2 24"/><path d="M208 183.9v23.9l4.7.7c5.3.8 12.5 4.1 17 7.9 1.6 1.4 4.5 5.3 6.4 8.8l3.4 6.3.3 20.2.4 20.3h21.4c21.5 0 21.5 0 23.9 2.5 3.3 3.2 3.3 7.8 0 11-2.4 2.5-2.4 2.5-24 2.5H240v16h21.5c21.6 0 21.6 0 24 2.5 3.3 3.2 3.3 7.8 0 11-2.4 2.5-2.4 2.5-24 2.5H240v16h21.5c21.6 0 21.6 0 24 2.5 1.6 1.5 2.5 3.6 2.5 5.5s-.9 4-2.5 5.5c-2.4 2.5-2.4 2.5-24 2.5H240v16h21.5c21.6 0 21.6 0 24 2.5 3.3 3.2 3.3 7.8 0 11-2.4 2.5-2.4 2.5-24 2.5H240v32.1l34.9-.3c33.5-.3 35.1-.4 37.7-2.4 1.5-1.1 3.7-3.3 4.8-4.8 2.1-2.7 2.1-3.1 2.1-120.6s0-117.9-2.1-120.6c-1.1-1.5-3.3-3.7-4.8-4.8-2.7-2-4-2.1-53.7-2.4l-50.9-.3zM63.5 256l-32 32H96v-32c0-17.6-.1-32-.3-32-.1 0-14.6 14.4-32.2 32"/><path d="M111.8 258.9c-.3 33.5-.4 35.1-2.4 37.7-1.1 1.5-3.3 3.7-4.8 4.8-2.6 2-4.2 2.1-37.7 2.4l-34.9.3.2 82.9c.3 81.9.3 82.9 2.4 85.6 1.1 1.5 3.3 3.7 4.8 4.8 2.7 2.1 3.4 2.1 88.6 2.1s85.9 0 88.6-2.1c1.5-1.1 3.7-3.3 4.8-4.8 2.1-2.7 2.1-3.1 2.1-120.6s0-117.9-2.1-120.6c-1.1-1.5-3.3-3.7-4.8-4.8-2.7-2-4-2.1-53.6-2.4l-50.9-.3zm77.7 79.6c3.3 3.2 3.3 7.8 0 11l-2.4 2.5H68.9l-2.4-2.5c-1.6-1.5-2.5-3.6-2.5-5.5s.9-4 2.5-5.5l2.4-2.5h118.2zm0 32c3.3 3.2 3.3 7.8 0 11l-2.4 2.5H68.9l-2.4-2.5c-1.6-1.5-2.5-3.6-2.5-5.5s.9-4 2.5-5.5l2.4-2.5h118.2zm0 32c3.3 3.2 3.3 7.8 0 11l-2.4 2.5H68.9l-2.4-2.5c-1.6-1.5-2.5-3.6-2.5-5.5s.9-4 2.5-5.5l2.4-2.5h118.2zm0 32c3.3 3.2 3.3 7.8 0 11l-2.4 2.5H68.9l-2.4-2.5c-1.6-1.5-2.5-3.6-2.5-5.5s.9-4 2.5-5.5l2.4-2.5h118.2z"/></svg>