<?xml version="1.0" standalone="no"?>
<!DOCTYPE svg PUBLIC "-//W3C//DTD SVG 20010904//EN" "http://www.w3.org/TR/2001/REC-SVG-20010904/DTD/svg10.dtd">

<svg version="1.0" xmlns="http://www.w3.org/2000/svg"
    width="1478.000000pt" height="802.000000pt" viewBox="0 0 1478.000000 802.000000"
    preserveAspectRatio="xMidYMid meet">
    <g transform="translate(0.000000,802.000000) scale(0.100000,-0.100000)"
        fill="#000000" stroke="none">
        <path
            d="M12820 7421 l-455 -218 0 -583 0 -583 458 -220 457 -220 458 220 457
220 0 583 0 583 -455 218 c-250 120 -457 219 -460 219 -3 0 -210 -99 -460
-219z m885 -27 c226 -108 413 -199 417 -203 4 -3 -184 -97 -418 -209 l-425
-203 -424 203 c-233 112 -421 205 -419 208 14 13 822 398 839 399 11 1 205
-87 430 -195z m-884 -440 c225 -108 416 -202 424 -208 13 -10 15 -79 13 -552
l-3 -540 -427 205 -428 205 0 543 c0 299 3 543 6 543 4 0 191 -88 415 -196z
m1339 -347 l0 -543 -237 -114 c-131 -62 -325 -155 -431 -206 l-192 -93 2 547
3 546 420 203 c231 111 423 203 428 203 4 0 7 -244 7 -543z" />
        <path
            d="M1020 7221 l-455 -218 0 -583 0 -583 458 -220 457 -220 458 220 457
220 0 583 0 583 -455 218 c-250 120 -457 219 -460 219 -3 0 -210 -99 -460
-219z m885 -27 c226 -108 413 -200 417 -203 4 -3 -184 -98 -417 -209 l-425
-203 -424 203 c-234 111 -423 205 -420 207 14 14 822 399 839 400 11 1 205
-87 430 -195z m-870 -447 l420 -203 3 -546 2 -547 -192 93 c-106 51 -300 144
-430 206 l-238 114 0 543 c0 299 3 543 8 543 4 0 196 -92 427 -203z m1325
-340 l0 -543 -237 -114 c-131 -62 -325 -155 -431 -206 l-192 -93 2 547 3 546
420 203 c231 111 423 203 428 203 4 0 7 -244 7 -543z" />
        <path
            d="M2595 6600 c3 -5 424 -260 936 -566 l929 -557 -37 -26 -38 -26 90 -8
c50 -4 95 -6 101 -5 6 2 -12 40 -41 86 l-53 83 -7 -41 c-4 -22 -8 -40 -10 -40
-2 0 -420 250 -929 555 -509 305 -930 555 -936 555 -6 0 -8 -4 -5 -10z" />
        <path
            d="M12140 6581 l-75 -6 39 -24 38 -24 -23 -13 c-13 -7 -411 -240 -884
-517 l-860 -504 -5 34 c-3 19 -9 34 -14 34 -4 0 -30 -34 -57 -76 l-50 -77 98
7 c54 4 99 9 101 10 2 2 -13 13 -34 25 l-36 23 23 13 c13 7 411 240 884 517
l860 503 5 -33 c3 -19 8 -35 13 -36 4 -1 29 33 57 76 l49 77 -27 -2 c-15 -1
-61 -4 -102 -7z" />
        <path
            d="M4725 5424 c-50 -26 -75 -55 -116 -139 -219 -449 -189 -1512 51
-1815 61 -77 -205 -70 2720 -70 2395 0 2625 1 2656 16 180 85 300 684 254
1259 -29 350 -119 646 -223 729 l-39 31 -2636 2 c-2375 3 -2640 1 -2667 -13z
m5131 -57 c-116 -152 -196 -543 -196 -956 0 -401 81 -785 196 -936 l26 -35
-2566 0 -2566 0 -38 35 c-207 186 -280 1087 -132 1621 32 116 90 233 134 272
l37 32 2565 0 2565 0 -25 -33z m190 1 c69 -61 136 -235 175 -460 100 -575 -8
-1353 -201 -1453 -44 -23 -66 -18 -108 20 -178 161 -267 893 -173 1433 52 297
147 492 241 492 19 0 43 -12 66 -32z" />
        <path
            d="M5940 4859 c-31 -16 -93 -61 -138 -99 l-81 -70 -97 0 -96 0 -60 54
c-33 30 -77 67 -99 82 l-39 27 -39 -26 c-21 -14 -55 -33 -75 -41 -31 -13 -36
-20 -36 -46 0 -53 39 -229 65 -289 22 -54 23 -60 12 -167 -10 -100 -9 -116 7
-159 29 -74 66 -108 156 -144 77 -31 82 -32 141 -20 47 9 76 9 129 0 61 -11
72 -11 111 7 24 10 59 25 76 32 42 16 97 77 113 125 9 27 11 72 6 154 -6 111
-5 119 23 201 36 102 51 188 51 293 0 64 -3 80 -20 97 -27 27 -45 25 -110 -11z
m94 -109 c-1 -98 -27 -223 -64 -308 -17 -39 -18 -51 -7 -158 l11 -116 -27 -51
c-22 -43 -77 -97 -99 -97 -2 0 -11 26 -18 58 -11 51 -20 64 -82 125 -67 64
-72 67 -118 67 -44 0 -55 -5 -111 -51 -62 -52 -98 -110 -99 -160 0 -14 -3 -28
-6 -32 -10 -10 -60 20 -88 53 -40 48 -48 93 -36 208 l11 101 -36 108 c-20 59
-39 137 -42 173 l-5 65 56 33 c32 19 64 31 74 28 9 -3 46 -32 82 -65 64 -58
65 -59 38 -66 -31 -8 -64 -40 -50 -49 6 -3 30 3 53 14 24 11 56 20 70 20 26 0
27 -2 34 -80 6 -73 17 -101 32 -86 3 3 9 40 14 83 4 43 8 79 8 81 1 1 5 2 11
2 5 0 10 -37 12 -82 4 -112 27 -106 43 12 9 72 14 75 76 55 61 -20 62 -21 67
-6 2 6 -13 18 -32 28 -20 9 -36 20 -36 24 0 10 98 92 160 132 33 22 65 36 80
34 25 -2 25 -3 24 -97z m-444 -584 c-1 -32 -94 -126 -126 -126 -20 0 -17 20
11 76 42 83 116 116 115 50z m144 13 c38 -30 68 -93 64 -136 l-3 -35 -47 41
c-59 52 -92 104 -83 131 8 26 35 26 69 -1z m-84 -96 c0 -7 -11 -13 -25 -13
-27 0 -31 10 -14 41 10 20 11 20 24 2 8 -10 15 -24 15 -30z m32 -63 c65 -19
49 -25 -64 -25 l-110 0 39 17 c44 20 82 22 135 8z" />
        <path
            d="M5398 4339 c-33 -19 -16 -99 20 -99 27 0 42 20 42 57 0 22 -6 36 -19
43 -23 12 -22 12 -43 -1z" />
        <path d="M5575 4343 c-44 -11 -31 -18 36 -19 38 0 65 4 61 8 -11 11 -71 18
-97 11z" />
        <path d="M5804 4325 c-20 -31 -12 -71 17 -80 28 -9 49 12 49 49 0 56 -38 74
-66 31z" />
        <path d="M8060 4655 l0 -55 70 0 70 0 0 55 0 55 -70 0 -70 0 0 -55z" />
        <path
            d="M6264 4681 c-54 -33 -64 -56 -64 -149 0 -90 14 -132 53 -154 13 -8
75 -15 157 -18 l135 -5 3 -31 c2 -16 -2 -43 -8 -58 l-10 -29 -165 5 -165 4 0
-51 0 -52 46 -7 c26 -3 119 -6 207 -6 l159 0 40 40 40 40 -4 95 c-3 92 -4 96
-36 127 l-32 33 -128 5 c-70 3 -133 9 -139 13 -16 10 -17 79 -1 95 8 8 56 12
149 12 l137 0 6 31 c3 17 6 42 6 55 l0 24 -177 0 c-158 0 -182 -2 -209 -19z" />
        <path
            d="M7232 4418 l3 -283 171 0 c249 0 254 4 254 225 l0 142 -35 35 -36 36
-109 -5 -110 -6 0 69 0 69 -70 0 -70 0 2 -282z m286 -57 c2 -60 -1 -98 -9
-107 -8 -9 -33 -14 -75 -14 l-64 0 0 103 c0 57 3 107 7 111 4 4 37 6 73 4 l65
-3 3 -94z" />
        <path
            d="M7742 4444 l3 -256 33 -29 c30 -27 39 -29 108 -29 l75 0 -3 53 c-3
50 -4 52 -34 55 -23 2 -34 9 -38 25 -3 12 -6 115 -6 230 l0 207 -71 0 -71 0 4
-256z" />
        <path
            d="M8475 4550 c-60 -24 -65 -24 -65 -5 0 12 -14 15 -65 15 l-65 0 2
-212 3 -213 70 0 70 0 5 155 5 155 70 0 70 0 5 -155 5 -155 70 0 70 0 -3 185
-3 185 -29 30 c-26 26 -38 30 -97 32 -50 2 -81 -2 -118 -17z" />
        <path
            d="M8864 4560 c-12 -4 -31 -21 -43 -36 -19 -25 -21 -39 -21 -181 l0
-155 29 -29 29 -29 134 0 c73 0 150 3 171 6 37 7 37 7 37 54 l0 48 -122 -5
c-110 -6 -122 -4 -135 12 -29 41 -20 44 130 47 l142 3 0 103 0 104 -37 34 -38
34 -127 -1 c-71 0 -138 -4 -149 -9z m212 -115 c12 -46 0 -55 -71 -55 l-65 0 0
33 c0 19 3 37 7 40 3 4 32 7 64 7 54 0 59 -2 65 -25z" />
        <path
            d="M6723 4543 c3 -10 42 -107 88 -215 92 -222 92 -222 8 -233 l-50 -7 3
-47 3 -46 84 -3 84 -3 41 44 c33 35 50 69 90 178 72 199 113 312 121 332 6 15
0 17 -68 17 l-74 0 -31 -97 c-17 -54 -34 -110 -37 -126 -12 -48 -23 -39 -55
45 -17 46 -39 103 -49 128 l-17 45 -73 3 c-67 3 -73 1 -68 -15z" />
        <path
            d="M8000 4495 c0 -54 0 -55 30 -55 l30 0 0 -155 0 -156 68 3 67 3 0 205
0 205 -97 3 -98 3 0 -56z" />
        <path
            d="M12820 5221 l-455 -218 0 -583 0 -583 458 -220 457 -220 458 220 457
220 0 583 0 583 -455 218 c-250 120 -457 219 -460 219 -3 0 -210 -99 -460
-219z m885 -27 c226 -108 413 -200 417 -203 4 -4 -184 -98 -417 -210 l-425
-203 -307 148 c-170 81 -362 173 -428 204 l-120 57 165 79 c91 43 278 134 415
201 138 67 259 122 270 122 11 1 205 -87 430 -195z m-884 -440 c225 -108 416
-202 424 -208 13 -10 15 -79 13 -552 l-3 -540 -427 205 -428 205 0 543 c0 299
3 543 6 543 4 0 191 -88 415 -196z m1339 -347 l0 -543 -237 -114 c-131 -62
-325 -155 -431 -206 l-192 -93 2 547 3 547 420 202 c231 112 423 203 428 203
4 0 7 -244 7 -543z" />
        <path
            d="M1020 5021 l-455 -218 0 -583 0 -583 458 -220 457 -220 458 220 457
220 0 583 0 583 -455 218 c-250 120 -457 219 -460 219 -3 0 -210 -99 -460
-219z m885 -27 c226 -108 413 -200 417 -203 4 -3 -184 -98 -417 -209 l-425
-203 -424 203 c-234 111 -423 205 -420 207 14 14 822 399 839 400 11 1 205
-87 430 -195z m-870 -447 l420 -203 3 -546 2 -547 -192 93 c-106 51 -300 144
-430 206 l-238 114 0 543 c0 299 3 543 8 543 4 0 196 -92 427 -203z m1325
-340 l0 -543 -237 -114 c-131 -62 -325 -155 -431 -206 l-192 -93 2 547 3 546
420 203 c231 111 423 203 428 203 4 0 7 -244 7 -543z" />
        <path
            d="M10503 4467 c-46 -23 -83 -44 -83 -47 0 -3 38 -25 85 -48 47 -23 85
-39 85 -34 -1 4 -7 18 -15 32 -8 14 -14 28 -15 33 0 4 342 7 760 7 418 0 760
-3 760 -7 -1 -5 -7 -19 -15 -33 -8 -14 -14 -28 -15 -32 0 -5 38 11 85 34 47
23 85 45 85 48 0 3 -38 25 -85 48 -47 23 -85 39 -85 34 1 -4 7 -18 15 -32 8
-14 14 -28 15 -32 0 -5 -342 -8 -760 -8 -418 0 -760 2 -760 5 0 4 7 20 16 36
8 17 14 32 12 34 -2 1 -40 -16 -85 -38z" />
        <path
            d="M4210 4492 c1 -4 7 -18 15 -32 8 -14 14 -28 15 -32 0 -5 -371 -8
-825 -8 -543 0 -825 -3 -825 -10 0 -7 282 -10 825 -10 454 0 825 -3 825 -7 -1
-5 -7 -19 -15 -33 -8 -14 -14 -28 -15 -32 0 -5 38 11 85 34 47 23 85 45 85 48
0 3 -38 25 -85 48 -47 23 -85 39 -85 34z" />
        <path
            d="M10311 3598 c11 -29 29 -71 39 -93 l18 -40 7 33 c4 18 11 35 15 37 7
5 1612 -1418 1618 -1434 1 -4 -14 -13 -34 -20 -19 -7 -34 -15 -31 -17 5 -5
180 -54 183 -51 1 1 -15 45 -36 97 -22 52 -39 88 -40 80 0 -8 -6 -28 -13 -44
l-13 -29 -804 717 c-443 395 -806 721 -808 725 -1 4 14 13 34 20 19 7 33 15
31 18 -3 2 -36 12 -74 22 -37 10 -78 21 -91 25 l-22 7 21 -53z" />
        <path
            d="M4291 3585 c-46 -14 -86 -26 -88 -29 -2 -2 12 -10 31 -17 20 -7 35
-16 34 -20 -2 -4 -379 -341 -838 -749 -459 -407 -836 -745 -838 -750 -2 -6 0
-10 5 -10 4 0 385 335 847 745 461 410 842 743 846 740 4 -3 11 -22 15 -42 l7
-38 18 45 c10 25 27 69 39 98 11 28 17 52 13 51 -4 0 -45 -11 -91 -24z" />
        <path
            d="M12820 3021 l-455 -218 0 -583 0 -583 458 -220 457 -220 458 220 457
220 0 583 0 583 -455 218 c-250 120 -457 219 -460 219 -3 0 -210 -99 -460
-219z m885 -27 c226 -108 413 -200 417 -203 4 -3 -184 -98 -417 -209 l-425
-203 -424 203 c-234 111 -423 205 -420 207 14 14 822 399 839 400 11 1 205
-87 430 -195z m-884 -440 c225 -108 416 -202 424 -208 13 -10 15 -79 13 -552
l-3 -540 -427 205 -428 205 0 543 c0 299 3 543 6 543 4 0 191 -88 415 -196z
m1339 -347 l0 -543 -237 -114 c-131 -62 -325 -155 -431 -206 l-192 -93 2 547
3 546 420 203 c231 111 423 203 428 203 4 0 7 -244 7 -543z" />
        <path
            d="M1020 2821 l-455 -218 0 -583 0 -583 458 -220 457 -220 458 220 457
220 0 583 0 583 -455 218 c-250 120 -457 219 -460 219 -3 0 -210 -99 -460
-219z m885 -27 c226 -108 413 -200 417 -203 4 -3 -184 -98 -417 -209 l-425
-203 -424 203 c-234 111 -423 205 -420 207 14 14 822 399 839 400 11 1 205
-87 430 -195z m-870 -447 l420 -203 3 -546 2 -547 -192 93 c-106 51 -300 144
-430 206 l-238 114 0 543 c0 299 3 543 8 543 4 0 196 -92 427 -203z m1325
-340 l0 -543 -237 -114 c-131 -62 -325 -155 -431 -206 l-192 -93 2 547 3 546
420 203 c231 111 423 203 428 203 4 0 7 -244 7 -543z" />
        <path
            d="M12508 824 c-37 -20 -60 -68 -60 -123 0 -91 38 -134 118 -134 50 0
86 26 103 74 9 26 8 29 -10 29 -11 0 -23 -10 -28 -23 -21 -55 -88 -63 -124
-15 -29 38 -26 112 4 144 31 33 82 33 113 -1 29 -31 48 -32 44 -3 -4 29 -63
68 -102 68 -17 -1 -43 -7 -58 -16z" />
        <path
            d="M12754 760 c-33 -13 -54 -50 -54 -96 0 -76 59 -117 127 -89 64 27 66
147 3 180 -32 17 -45 18 -76 5z m74 -48 c15 -19 16 -66 2 -93 -12 -22 -59 -26
-78 -7 -7 7 -12 31 -12 54 0 65 51 91 88 46z" />
        <path
            d="M12980 759 c-14 -3 -35 -4 -47 -2 -23 5 -23 3 -23 -91 0 -89 1 -96
20 -96 18 0 20 7 20 69 0 75 12 95 52 89 21 -3 23 -8 26 -80 3 -70 5 -78 22
-78 18 0 20 7 20 73 0 100 -26 134 -90 116z" />
        <path
            d="M13140 757 c-28 -14 -39 -59 -20 -81 6 -8 31 -19 55 -25 49 -12 59
-33 25 -51 -21 -11 -60 2 -60 20 0 6 -9 10 -20 10 -25 0 -25 -11 -1 -41 14
-18 29 -24 61 -24 32 0 47 6 61 24 37 45 15 80 -58 96 -39 8 -49 21 -32 41 13
16 49 10 62 -12 10 -17 37 -18 37 -1 0 20 -14 35 -43 46 -35 14 -36 14 -67 -2z" />
        <path
            d="M13567 763 c-4 -3 -23 -6 -42 -5 l-35 1 0 -94 c0 -88 2 -95 20 -95
17 0 19 8 22 71 3 75 17 99 52 86 13 -5 16 -21 16 -82 0 -68 2 -75 20 -75 17
0 19 8 22 71 3 75 17 99 52 86 13 -5 16 -21 16 -82 0 -68 2 -75 20 -75 18 0
20 7 20 74 0 41 -3 82 -6 91 -11 27 -52 37 -84 21 -16 -7 -32 -10 -37 -6 -13
12 -49 21 -56 13z" />
        <path
            d="M13834 755 c-49 -20 -68 -90 -39 -144 26 -51 110 -61 140 -18 8 12
15 25 15 29 0 14 -38 8 -44 -7 -8 -22 -63 -19 -76 4 -16 30 -14 31 54 31 36 0
68 5 71 10 8 13 -12 75 -28 88 -23 18 -62 21 -93 7z m76 -44 c15 -30 14 -31
-40 -31 -54 0 -55 1 -40 31 7 12 21 19 40 19 19 0 33 -7 40 -19z" />
        <path
            d="M14066 763 c-3 -3 -22 -6 -41 -5 l-35 1 0 -94 c0 -88 1 -95 20 -95
18 0 20 7 20 64 0 66 14 96 46 96 8 0 14 6 14 14 0 17 -14 28 -24 19z" />
        <path
            d="M14140 757 c-28 -14 -39 -59 -20 -81 6 -8 31 -19 55 -25 49 -12 59
-33 25 -51 -21 -11 -60 2 -60 20 0 6 -9 10 -20 10 -25 0 -25 -11 -1 -41 14
-18 29 -24 61 -24 32 0 47 6 61 24 37 45 15 80 -58 96 -39 8 -49 21 -32 41 13
16 49 10 62 -12 10 -17 37 -18 37 -1 0 20 -14 35 -43 46 -35 14 -36 14 -67 -2z" />
        <path
            d="M13290 682 c0 -100 10 -111 98 -110 l62 1 0 93 c0 87 -1 94 -20 94
-18 0 -20 -7 -20 -63 0 -73 -15 -101 -51 -95 -23 3 -24 7 -27 81 -3 69 -5 77
-22 77 -18 0 -20 -7 -20 -78z" />
        <path
            d="M680 620 c0 -123 1 -130 20 -130 18 0 20 7 20 55 l0 55 55 0 c76 0
102 26 96 95 -4 39 -38 55 -117 55 l-74 0 0 -130z m147 73 c13 -19 12 -24 -6
-42 -14 -14 -34 -21 -61 -21 l-40 0 0 46 0 45 46 -3 c35 -2 50 -9 61 -25z" />
        <path
            d="M1110 619 c0 -129 0 -131 21 -126 12 3 31 2 43 -3 36 -13 82 12 96
55 30 91 -26 159 -107 131 -21 -7 -23 -4 -23 33 0 30 -4 41 -15 41 -13 0 -15
-21 -15 -131z m120 12 c24 -47 5 -111 -35 -111 -27 0 -55 33 -55 65 0 54 67
88 90 46z" />
        <path
            d="M1310 620 c0 -123 1 -130 20 -130 19 0 20 7 20 130 0 123 -1 130 -20
130 -19 0 -20 -7 -20 -130z" />
        <path
            d="M1390 730 c0 -13 7 -20 20 -20 13 0 20 7 20 20 0 13 -7 20 -20 20
-13 0 -20 -7 -20 -20z" />
        <path
            d="M1650 620 c0 -123 1 -130 20 -130 18 0 20 7 20 69 0 75 12 95 52 89
21 -3 23 -8 26 -80 3 -70 5 -78 22 -78 18 0 20 7 20 71 0 39 -5 79 -11 90 -14
27 -53 41 -84 29 -24 -9 -25 -8 -25 30 0 33 -3 40 -20 40 -19 0 -20 -7 -20
-130z" />
        <path
            d="M1500 677 c-28 -14 -39 -59 -20 -81 6 -8 31 -19 55 -25 49 -12 59
-33 25 -51 -21 -11 -60 2 -60 20 0 6 -9 10 -20 10 -25 0 -25 -11 -1 -41 14
-18 29 -24 61 -24 32 0 47 6 61 24 37 45 15 80 -58 96 -39 8 -49 21 -32 41 13
16 49 10 62 -12 10 -17 37 -18 37 -1 0 20 -14 35 -43 46 -35 14 -36 14 -67 -2z" />
        <path
            d="M1894 675 c-49 -20 -68 -90 -39 -144 26 -51 110 -61 140 -18 8 12 15
25 15 29 0 14 -38 8 -44 -7 -8 -22 -63 -19 -76 4 -16 30 -14 31 54 31 36 0 68
5 71 10 8 13 -12 75 -28 88 -23 18 -62 21 -93 7z m76 -44 c15 -30 14 -31 -40
-31 -54 0 -55 1 -40 31 7 12 21 19 40 19 19 0 33 -7 40 -19z" />
        <path
            d="M2126 683 c-3 -3 -22 -6 -41 -5 l-35 1 0 -94 c0 -88 1 -95 20 -95 18
0 20 7 20 64 0 66 14 96 46 96 8 0 14 6 14 14 0 17 -14 28 -24 19z" />
        <path
            d="M2200 677 c-28 -14 -39 -59 -20 -81 6 -8 31 -19 55 -25 49 -12 59
-33 25 -51 -21 -11 -60 2 -60 20 0 6 -9 10 -20 10 -25 0 -25 -11 -1 -41 14
-18 29 -24 61 -24 32 0 47 6 61 24 37 45 15 80 -58 96 -39 8 -49 21 -32 41 13
16 49 10 62 -12 10 -17 37 -18 37 -1 0 20 -14 35 -43 46 -35 14 -36 14 -67 -2z" />
        <path
            d="M910 602 c0 -100 10 -111 98 -110 l62 1 0 93 c0 87 -1 94 -20 94 -18
0 -20 -7 -20 -63 0 -73 -15 -101 -51 -95 -23 3 -24 7 -27 81 -3 69 -5 77 -22
77 -18 0 -20 -7 -20 -78z" />
        <path
            d="M1390 585 c0 -88 1 -95 20 -95 19 0 20 7 20 95 0 88 -1 95 -20 95
-19 0 -20 -7 -20 -95z" />
    </g>
</svg>