<svg version="1.0" xmlns="http://www.w3.org/2000/svg" width="1970.667" height="1069.333" viewBox="0 0 1478 802"><path d="m1282 59.9-45.5 21.8v116.6l45.8 22 45.7 22 45.8-22 45.7-22V81.7L1374 59.9c-25-12-45.7-21.9-46-21.9s-21 9.9-46 21.9m88.5 2.7c22.6 10.8 41.3 19.9 41.7 20.3.4.3-18.4 9.7-41.8 20.9l-42.5 20.3-42.4-20.3c-23.3-11.2-42.1-20.5-41.9-20.8 1.4-1.3 82.2-39.8 83.9-39.9 1.1-.1 20.5 8.7 43 19.5m-88.4 44c22.5 10.8 41.6 20.2 42.4 20.8 1.3 1 1.5 7.9 1.3 55.2l-.3 54-42.7-20.5-42.8-20.5v-54.3c0-29.9.3-54.3.6-54.3.4 0 19.1 8.8 41.5 19.6m133.9 34.7v54.3l-23.7 11.4c-13.1 6.2-32.5 15.5-43.1 20.6l-19.2 9.3.2-54.7.3-54.6 42-20.3c23.1-11.1 42.3-20.3 42.8-20.3.4 0 .7 24.4.7 54.3M102 79.9l-45.5 21.8v116.6l45.8 22 45.7 22 45.8-22 45.7-22V101.7L194 79.9c-25-12-45.7-21.9-46-21.9s-21 9.9-46 21.9m88.5 2.7c22.6 10.8 41.3 20 41.7 20.3s-18.4 9.8-41.7 20.9L148 144.1l-42.4-20.3c-23.4-11.1-42.3-20.5-42-20.7 1.4-1.4 82.2-39.9 83.9-40 1.1-.1 20.5 8.7 43 19.5m-87 44.7 42 20.3.3 54.6.2 54.7-19.2-9.3c-10.6-5.1-30-14.4-43-20.6L60 215.6v-54.3c0-29.9.3-54.3.8-54.3.4 0 19.6 9.2 42.7 20.3m132.5 34v54.3L212.3 227c-13.1 6.2-32.5 15.5-43.1 20.6l-19.2 9.3.2-54.7.3-54.6 42-20.3c23.1-11.1 42.3-20.3 42.8-20.3.4 0 .7 24.4.7 54.3m23.5-19.3c.3.5 42.4 26 93.6 56.6l92.9 55.7-3.7 2.6-3.8 2.6 9 .8c5 .4 9.5.6 10.1.5.6-.2-1.2-4-4.1-8.6l-5.3-8.3-.7 4.1c-.4 2.2-.8 4-1 4s-42-25-92.9-55.5-93-55.5-93.6-55.5-.8.4-.5 1m954.5 1.9-7.5.6 3.9 2.4 3.8 2.4-2.3 1.3c-1.3.7-41.1 24-88.4 51.7l-86 50.4-.5-3.4c-.3-1.9-.9-3.4-1.4-3.4-.4 0-3 3.4-5.7 7.6l-5 7.7 9.8-.7c5.4-.4 9.9-.9 10.1-1 .2-.2-1.3-1.3-3.4-2.5l-3.6-2.3 2.3-1.3c1.3-.7 41.1-24 88.4-51.7l86-50.3.5 3.3c.3 1.9.8 3.5 1.3 3.6.4.1 2.9-3.3 5.7-7.6l4.9-7.7-2.7.2c-1.5.1-6.1.4-10.2.7M472.5 259.6c-5 2.6-7.5 5.5-11.6 13.9C439 318.4 442 424.7 466 455c6.1 7.7-20.5 7 272 7 239.5 0 262.5-.1 265.6-1.6 18-8.5 30-68.4 25.4-125.9-2.9-35-11.9-64.6-22.3-72.9l-3.9-3.1-263.6-.2c-237.5-.3-264-.1-266.7 1.3m513.1 5.7C974 280.5 966 319.6 966 360.9c0 40.1 8.1 78.5 19.6 93.6l2.6 3.5H475l-3.8-3.5c-20.7-18.6-28-108.7-13.2-162.1 3.2-11.6 9-23.3 13.4-27.2l3.7-3.2h513zm19-.1c6.9 6.1 13.6 23.5 17.5 46 10 57.5-.8 135.3-20.1 145.3-4.4 2.3-6.6 1.8-10.8-2-17.8-16.1-26.7-89.3-17.3-143.3 5.2-29.7 14.7-49.2 24.1-49.2 1.9 0 4.3 1.2 6.6 3.2"/><path d="M594 316.1c-3.1 1.6-9.3 6.1-13.8 9.9l-8.1 7h-19.3l-6-5.4c-3.3-3-7.7-6.7-9.9-8.2l-3.9-2.7-3.9 2.6c-2.1 1.4-5.5 3.3-7.5 4.1-3.1 1.3-3.6 2-3.6 4.6 0 5.3 3.9 22.9 6.5 28.9 2.2 5.4 2.3 6 1.2 16.7-1 10-.9 11.6.7 15.9 2.9 7.4 6.6 10.8 15.6 14.4 7.7 3.1 8.2 3.2 14.1 2 4.7-.9 7.6-.9 12.9 0 6.1 1.1 7.2 1.1 11.1-.7 2.4-1 5.9-2.5 7.6-3.2 4.2-1.6 9.7-7.7 11.3-12.5.9-2.7 1.1-7.2.6-15.4-.6-11.1-.5-11.9 2.3-20.1 3.6-10.2 5.1-18.8 5.1-29.3 0-6.4-.3-8-2-9.7-2.7-2.7-4.5-2.5-11 1.1m9.4 10.9c-.1 9.8-2.7 22.3-6.4 30.8-1.7 3.9-1.8 5.1-.7 15.8l1.1 11.6-2.7 5.1c-2.2 4.3-7.7 9.7-9.9 9.7-.2 0-1.1-2.6-1.8-5.8-1.1-5.1-2-6.4-8.2-12.5-6.7-6.4-7.2-6.7-11.8-6.7-4.4 0-5.5.5-11.1 5.1-6.2 5.2-9.8 11-9.9 16 0 1.4-.3 2.8-.6 3.2-1 1-6-2-8.8-5.3-4-4.8-4.8-9.3-3.6-20.8l1.1-10.1-3.6-10.8c-2-5.9-3.9-13.7-4.2-17.3l-.5-6.5 5.6-3.3c3.2-1.9 6.4-3.1 7.4-2.8.9.3 4.6 3.2 8.2 6.5 6.4 5.8 6.5 5.9 3.8 6.6-3.1.8-6.4 4-5 4.9.6.3 3-.3 5.3-1.4 2.4-1.1 5.6-2 7-2 2.6 0 2.7.2 3.4 8 .6 7.3 1.7 10.1 3.2 8.6.3-.3.9-4 1.4-8.3.4-4.3.8-7.9.8-8.1.1-.1.5-.2 1.1-.2.5 0 1 3.7 1.2 8.2.4 11.2 2.7 10.6 4.3-1.2.9-7.2 1.4-7.5 7.6-5.5 6.1 2 6.2 2.1 6.7.6.2-.6-1.3-1.8-3.2-2.8-2-.9-3.6-2-3.6-2.4 0-1 9.8-9.2 16-13.2 3.3-2.2 6.5-3.6 8-3.4 2.5.2 2.5.3 2.4 9.7M559 385.4c-.1 3.2-9.4 12.6-12.6 12.6-2 0-1.7-2 1.1-7.6 4.2-8.3 11.6-11.6 11.5-5m14.4-1.3c3.8 3 6.8 9.3 6.4 13.6l-.3 3.5-4.7-4.1c-5.9-5.2-9.2-10.4-8.3-13.1.8-2.6 3.5-2.6 6.9.1m-8.4 9.6c0 .7-1.1 1.3-2.5 1.3-2.7 0-3.1-1-1.4-4.1 1-2 1.1-2 2.4-.2.8 1 1.5 2.4 1.5 3m3.2 6.3c6.5 1.9 4.9 2.5-6.4 2.5h-11l3.9-1.7c4.4-2 8.2-2.2 13.5-.8"/><path d="M539.8 368.1c-3.3 1.9-1.6 9.9 2 9.9 2.7 0 4.2-2 4.2-5.7 0-2.2-.6-3.6-1.9-4.3-2.3-1.2-2.2-1.2-4.3.1m17.7-.4c-4.4 1.1-3.1 1.8 3.6 1.9 3.8 0 6.5-.4 6.1-.8-1.1-1.1-7.1-1.8-9.7-1.1m22.9 1.8c-2 3.1-1.2 7.1 1.7 8 2.8.9 4.9-1.2 4.9-4.9 0-5.6-3.8-7.4-6.6-3.1m225.6-33v5.5h14v-11h-14zm-179.6-2.6c-5.4 3.3-6.4 5.6-6.4 14.9 0 9 1.4 13.2 5.3 15.4 1.3.8 7.5 1.5 15.7 1.8l13.5.5.3 3.1c.2 1.6-.2 4.3-.8 5.8l-1 2.9-16.5-.5-16.5-.4v10.3l4.6.7c2.6.3 11.9.6 20.7.6h15.9l4-4 4-4-.4-9.5c-.3-9.2-.4-9.6-3.6-12.7l-3.2-3.3-12.8-.5c-7-.3-13.3-.9-13.9-1.3-1.6-1-1.7-7.9-.1-9.5.8-.8 5.6-1.2 14.9-1.2h13.7l.6-3.1c.3-1.7.6-4.2.6-5.5V332h-17.7c-15.8 0-18.2.2-20.9 1.9m96.8 26.3.3 28.3h17.1c24.9 0 25.4-.4 25.4-22.5v-14.2l-3.5-3.5-3.6-3.6-10.9.5-11 .6V332h-14zm28.6 5.7c.2 6-.1 9.8-.9 10.7s-3.3 1.4-7.5 1.4H737v-10.3c0-5.7.3-10.7.7-11.1s3.7-.6 7.3-.4l6.5.3zm22.4-8.3.3 25.6 3.3 2.9c3 2.7 3.9 2.9 10.8 2.9h7.5l-.3-5.3c-.3-5-.4-5.2-3.4-5.5-2.3-.2-3.4-.9-3.8-2.5-.3-1.2-.6-11.5-.6-23V332h-14.2zm73.3-10.6c-6 2.4-6.5 2.4-6.5.5 0-1.2-1.4-1.5-6.5-1.5H828l.2 21.2.3 21.3h14l.5-15.5.5-15.5h14l.5 15.5.5 15.5h14l-.3-18.5-.3-18.5-2.9-3c-2.6-2.6-3.8-3-9.7-3.2-5-.2-8.1.2-11.8 1.7m38.9-1c-1.2.4-3.1 2.1-4.3 3.6-1.9 2.5-2.1 3.9-2.1 18.1v15.5l2.9 2.9 2.9 2.9h13.4c7.3 0 15-.3 17.1-.6 3.7-.7 3.7-.7 3.7-5.4v-4.8l-12.2.5c-11 .6-12.2.4-13.5-1.2-2.9-4.1-2-4.4 13-4.7l14.2-.3v-20.7l-3.7-3.4-3.8-3.4-12.7.1c-7.1 0-13.8.4-14.9.9m21.2 11.5c1.2 4.6 0 5.5-7.1 5.5H894v-3.3c0-1.9.3-3.7.7-4 .3-.4 3.2-.7 6.4-.7 5.4 0 5.9.2 6.5 2.5m-235.3-9.8c.3 1 4.2 10.7 8.8 21.5 9.2 22.2 9.2 22.2.8 23.3l-5 .7.3 4.7.3 4.6 8.4.3 8.4.3 4.1-4.4c3.3-3.5 5-6.9 9-17.8 7.2-19.9 11.3-31.2 12.1-33.2.6-1.5 0-1.7-6.8-1.7h-7.4l-3.1 9.7c-1.7 5.4-3.4 11-3.7 12.6-1.2 4.8-2.3 3.9-5.5-4.5-1.7-4.6-3.9-10.3-4.9-12.8l-1.7-4.5-7.3-.3c-6.7-.3-7.3-.1-6.8 1.5m127.7 4.8c0 5.4 0 5.5 3 5.5h3v31.1l6.8-.3 6.7-.3v-41l-9.7-.3-9.8-.3zm482-72.6-45.5 21.8v116.6l45.8 22 45.7 22 45.8-22 45.7-22V301.7l-45.5-21.8c-25-12-45.7-21.9-46-21.9s-21 9.9-46 21.9m88.5 2.7c22.6 10.8 41.3 20 41.7 20.3.4.4-18.4 9.8-41.7 21l-42.5 20.3-30.7-14.8c-17-8.1-36.2-17.3-42.8-20.4l-12-5.7 16.5-7.9c9.1-4.3 27.8-13.4 41.5-20.1 13.8-6.7 25.9-12.2 27-12.2 1.1-.1 20.5 8.7 43 19.5m-88.4 44c22.5 10.8 41.6 20.2 42.4 20.8 1.3 1 1.5 7.9 1.3 55.2l-.3 54-42.7-20.5-42.8-20.5v-54.3c0-29.9.3-54.3.6-54.3.4 0 19.1 8.8 41.5 19.6m133.9 34.7v54.3l-23.7 11.4c-13.1 6.2-32.5 15.5-43.1 20.6l-19.2 9.3.2-54.7.3-54.7 42-20.2c23.1-11.2 42.3-20.3 42.8-20.3.4 0 .7 24.4.7 54.3M102 299.9l-45.5 21.8v116.6l45.8 22 45.7 22 45.8-22 45.7-22V321.7L194 299.9c-25-12-45.7-21.9-46-21.9s-21 9.9-46 21.9m88.5 2.7c22.6 10.8 41.3 20 41.7 20.3s-18.4 9.8-41.7 20.9L148 364.1l-42.4-20.3c-23.4-11.1-42.3-20.5-42-20.7 1.4-1.4 82.2-39.9 83.9-40 1.1-.1 20.5 8.7 43 19.5m-87 44.7 42 20.3.3 54.6.2 54.7-19.2-9.3c-10.6-5.1-30-14.4-43-20.6L60 435.6v-54.3c0-29.9.3-54.3.8-54.3.4 0 19.6 9.2 42.7 20.3m132.5 34v54.3L212.3 447c-13.1 6.2-32.5 15.5-43.1 20.6l-19.2 9.3.2-54.7.3-54.6 42-20.3c23.1-11.1 42.3-20.3 42.8-20.3.4 0 .7 24.4.7 54.3m814.3-26c-4.6 2.3-8.3 4.4-8.3 4.7s3.8 2.5 8.5 4.8 8.5 3.9 8.5 3.4c-.1-.4-.7-1.8-1.5-3.2s-1.4-2.8-1.5-3.3c0-.4 34.2-.7 76-.7s76 .3 76 .7c-.1.5-.7 1.9-1.5 3.3s-1.4 2.8-1.5 3.2c0 .5 3.8-1.1 8.5-3.4s8.5-4.5 8.5-4.8-3.8-2.5-8.5-4.8-8.5-3.9-8.5-3.4c.1.4.7 1.8 1.5 3.2s1.4 2.8 1.5 3.2c0 .5-34.2.8-76 .8s-76-.2-76-.5c0-.4.7-2 1.6-3.6.8-1.7 1.4-3.2 1.2-3.4-.2-.1-4 1.6-8.5 3.8M421 352.8c.1.4.7 1.8 1.5 3.2s1.4 2.8 1.5 3.2c0 .5-37.1.8-82.5.8-54.3 0-82.5.3-82.5 1s28.2 1 82.5 1c45.4 0 82.5.3 82.5.7-.1.5-.7 1.9-1.5 3.3s-1.4 2.8-1.5 3.2c0 .5 3.8-1.1 8.5-3.4s8.5-4.5 8.5-4.8-3.8-2.5-8.5-4.8-8.5-3.9-8.5-3.4m610.1 89.4c1.1 2.9 2.9 7.1 3.9 9.3l1.8 4 .7-3.3c.4-1.8 1.1-3.5 1.5-3.7.7-.5 161.2 141.8 161.8 143.4.1.4-1.4 1.3-3.4 2-1.9.7-3.4 1.5-3.1 1.7.5.5 18 5.4 18.3 5.1.1-.1-1.5-4.5-3.6-9.7-2.2-5.2-3.9-8.8-4-8 0 .8-.6 2.8-1.3 4.4l-1.3 2.9-80.4-71.7c-44.3-39.5-80.6-72.1-80.8-72.5-.1-.4 1.4-1.3 3.4-2 1.9-.7 3.3-1.5 3.1-1.8-.3-.2-3.6-1.2-7.4-2.2-3.7-1-7.8-2.1-9.1-2.5l-2.2-.7zm-602 1.3c-4.6 1.4-8.6 2.6-8.8 2.9-.2.2 1.2 1 3.1 1.7 2 .7 3.5 1.6 3.4 2-.2.4-37.9 34.1-83.8 74.9-45.9 40.7-83.6 74.5-83.8 75-.2.6 0 1 .5 1 .4 0 38.5-33.5 84.7-74.5 46.1-41 84.2-74.3 84.6-74s1.1 2.2 1.5 4.2l.7 3.8 1.8-4.5c1-2.5 2.7-6.9 3.9-9.8 1.1-2.8 1.7-5.2 1.3-5.1-.4 0-4.5 1.1-9.1 2.4m852.9 56.4-45.5 21.8v116.6l45.8 22 45.7 22 45.8-22 45.7-22V521.7l-45.5-21.8c-25-12-45.7-21.9-46-21.9s-21 9.9-46 21.9m88.5 2.7c22.6 10.8 41.3 20 41.7 20.3s-18.4 9.8-41.7 20.9l-42.5 20.3-42.4-20.3c-23.4-11.1-42.3-20.5-42-20.7 1.4-1.4 82.2-39.9 83.9-40 1.1-.1 20.5 8.7 43 19.5m-88.4 44c22.5 10.8 41.6 20.2 42.4 20.8 1.3 1 1.5 7.9 1.3 55.2l-.3 54-42.7-20.5-42.8-20.5v-54.3c0-29.9.3-54.3.6-54.3.4 0 19.1 8.8 41.5 19.6m133.9 34.7v54.3l-23.7 11.4c-13.1 6.2-32.5 15.5-43.1 20.6l-19.2 9.3.2-54.7.3-54.6 42-20.3c23.1-11.1 42.3-20.3 42.8-20.3.4 0 .7 24.4.7 54.3M102 519.9l-45.5 21.8v116.6l45.8 22 45.7 22 45.8-22 45.7-22V541.7L194 519.9c-25-12-45.7-21.9-46-21.9s-21 9.9-46 21.9m88.5 2.7c22.6 10.8 41.3 20 41.7 20.3s-18.4 9.8-41.7 20.9L148 584.1l-42.4-20.3c-23.4-11.1-42.3-20.5-42-20.7 1.4-1.4 82.2-39.9 83.9-40 1.1-.1 20.5 8.7 43 19.5m-87 44.7 42 20.3.3 54.6.2 54.7-19.2-9.3c-10.6-5.1-30-14.4-43-20.6L60 655.6v-54.3c0-29.9.3-54.3.8-54.3.4 0 19.6 9.2 42.7 20.3m132.5 34v54.3L212.3 667c-13.1 6.2-32.5 15.5-43.1 20.6l-19.2 9.3.2-54.7.3-54.6 42-20.3c23.1-11.1 42.3-20.3 42.8-20.3.4 0 .7 24.4.7 54.3m1014.8 118.3c-3.7 2-6 6.8-6 12.3 0 9.1 3.8 13.4 11.8 13.4 5 0 8.6-2.6 10.3-7.4.9-2.6.8-2.9-1-2.9-1.1 0-2.3 1-2.8 2.3-2.1 5.5-8.8 6.3-12.4 1.5-2.9-3.8-2.6-11.2.4-14.4 3.1-3.3 8.2-3.3 11.3.1 2.9 3.1 4.8 3.2 4.4.3s-6.3-6.8-10.2-6.8c-1.7.1-4.3.7-5.8 1.6m24.6 6.4c-3.3 1.3-5.4 5-5.4 9.6 0 7.6 5.9 11.7 12.7 8.9 6.4-2.7 6.6-14.7.3-18-3.2-1.7-4.5-1.8-7.6-.5m7.4 4.8c1.5 1.9 1.6 6.6.2 9.3-1.2 2.2-5.9 2.6-7.8.7-.7-.7-1.2-3.1-1.2-5.4 0-6.5 5.1-9.1 8.8-4.6m15.2-4.7c-1.4.3-3.5.4-4.7.2-2.3-.5-2.3-.3-2.3 9.1 0 8.9.1 9.6 2 9.6 1.8 0 2-.7 2-6.9 0-7.5 1.2-9.5 5.2-8.9 2.1.3 2.3.8 2.6 8 .3 7 .5 7.8 2.2 7.8 1.8 0 2-.7 2-7.3 0-10-2.6-13.4-9-11.6m16 .2c-2.8 1.4-3.9 5.9-2 8.1.6.8 3.1 1.9 5.5 2.5 4.9 1.2 5.9 3.3 2.5 5.1-2.1 1.1-6-.2-6-2 0-.6-.9-1-2-1-2.5 0-2.5 1.1-.1 4.1 1.4 1.8 2.9 2.4 6.1 2.4s4.7-.6 6.1-2.4c3.7-4.5 1.5-8-5.8-9.6-3.9-.8-4.9-2.1-3.2-4.1 1.3-1.6 4.9-1 6.2 1.2 1 1.7 3.7 1.8 3.7.1 0-2-1.4-3.5-4.3-4.6-3.5-1.4-3.6-1.4-6.7.2m42.7-.6c-.4.3-2.3.6-4.2.5l-3.5-.1v9.4c0 8.8.2 9.5 2 9.5 1.7 0 1.9-.8 2.2-7.1.3-7.5 1.7-9.9 5.2-8.6 1.3.5 1.6 2.1 1.6 8.2 0 6.8.2 7.5 2 7.5 1.7 0 1.9-.8 2.2-7.1.3-7.5 1.7-9.9 5.2-8.6 1.3.5 1.6 2.1 1.6 8.2 0 6.8.2 7.5 2 7.5s2-.7 2-7.4c0-4.1-.3-8.2-.6-9.1-1.1-2.7-5.2-3.7-8.4-2.1-1.6.7-3.2 1-3.7.6-1.3-1.2-4.9-2.1-5.6-1.3m26.7.8c-4.9 2-6.8 9-3.9 14.4 2.6 5.1 11 6.1 14 1.8.8-1.2 1.5-2.5 1.5-2.9 0-1.4-3.8-.8-4.4.7-.8 2.2-6.3 1.9-7.6-.4-1.6-3-1.4-3.1 5.4-3.1 3.6 0 6.8-.5 7.1-1 .8-1.3-1.2-7.5-2.8-8.8-2.3-1.8-6.2-2.1-9.3-.7m7.6 4.4c1.5 3 1.4 3.1-4 3.1s-5.5-.1-4-3.1c.7-1.2 2.1-1.9 4-1.9s3.3.7 4 1.9m15.6-5.2c-.3.3-2.2.6-4.1.5l-3.5-.1v9.4c0 8.8.1 9.5 2 9.5 1.8 0 2-.7 2-6.4 0-6.6 1.4-9.6 4.6-9.6.8 0 1.4-.6 1.4-1.4 0-1.7-1.4-2.8-2.4-1.9m7.4.6c-2.8 1.4-3.9 5.9-2 8.1.6.8 3.1 1.9 5.5 2.5 4.9 1.2 5.9 3.3 2.5 5.1-2.1 1.1-6-.2-6-2 0-.6-.9-1-2-1-2.5 0-2.5 1.1-.1 4.1 1.4 1.8 2.9 2.4 6.1 2.4s4.7-.6 6.1-2.4c3.7-4.5 1.5-8-5.8-9.6-3.9-.8-4.9-2.1-3.2-4.1 1.3-1.6 4.9-1 6.2 1.2 1 1.7 3.7 1.8 3.7.1 0-2-1.4-3.5-4.3-4.6-3.5-1.4-3.6-1.4-6.7.2m-85 7.5c0 10 1 11.1 9.8 11l6.2-.1v-9.3c0-8.7-.1-9.4-2-9.4-1.8 0-2 .7-2 6.3 0 7.3-1.5 10.1-5.1 9.5-2.3-.3-2.4-.7-2.7-8.1-.3-6.9-.5-7.7-2.2-7.7-1.8 0-2 .7-2 7.8M68 740c0 12.3.1 13 2 13 1.8 0 2-.7 2-5.5V742h5.5c7.6 0 10.2-2.6 9.6-9.5-.4-3.9-3.8-5.5-11.7-5.5H68zm14.7-7.3c1.3 1.9 1.2 2.4-.6 4.2-1.4 1.4-3.4 2.1-6.1 2.1h-4v-9.1l4.6.3c3.5.2 5 .9 6.1 2.5m28.3 7.4c0 12.9 0 13.1 2.1 12.6 1.2-.3 3.1-.2 4.3.3 3.6 1.3 8.2-1.2 9.6-5.5 3-9.1-2.6-15.9-10.7-13.1-2.1.7-2.3.4-2.3-3.3 0-3-.4-4.1-1.5-4.1-1.3 0-1.5 2.1-1.5 13.1m12-1.2c2.4 4.7.5 11.1-3.5 11.1-2.7 0-5.5-3.3-5.5-6.5 0-5.4 6.7-8.8 9-4.6m8 1.1c0 12.3.1 13 2 13s2-.7 2-13-.1-13-2-13-2 .7-2 13m8-11c0 1.3.7 2 2 2s2-.7 2-2-.7-2-2-2-2 .7-2 2m26 11c0 12.3.1 13 2 13 1.8 0 2-.7 2-6.9 0-7.5 1.2-9.5 5.2-8.9 2.1.3 2.3.8 2.6 8 .3 7 .5 7.8 2.2 7.8 1.8 0 2-.7 2-7.1 0-3.9-.5-7.9-1.1-9-1.4-2.7-5.3-4.1-8.4-2.9-2.4.9-2.5.8-2.5-3 0-3.3-.3-4-2-4-1.9 0-2 .7-2 13m-15-5.7c-2.8 1.4-3.9 5.9-2 8.1.6.8 3.1 1.9 5.5 2.5 4.9 1.2 5.9 3.3 2.5 5.1-2.1 1.1-6-.2-6-2 0-.6-.9-1-2-1-2.5 0-2.5 1.1-.1 4.1 1.4 1.8 2.9 2.4 6.1 2.4s4.7-.6 6.1-2.4c3.7-4.5 1.5-8-5.8-9.6-3.9-.8-4.9-2.1-3.2-4.1 1.3-1.6 4.9-1 6.2 1.2 1 1.7 3.7 1.8 3.7.1 0-2-1.4-3.5-4.3-4.6-3.5-1.4-3.6-1.4-6.7.2m39.4.2c-4.9 2-6.8 9-3.9 14.4 2.6 5.1 11 6.1 14 1.8.8-1.2 1.5-2.5 1.5-2.9 0-1.4-3.8-.8-4.4.7-.8 2.2-6.3 1.9-7.6-.4-1.6-3-1.4-3.1 5.4-3.1 3.6 0 6.8-.5 7.1-1 .8-1.3-1.2-7.5-2.8-8.8-2.3-1.8-6.2-2.1-9.3-.7m7.6 4.4c1.5 3 1.4 3.1-4 3.1s-5.5-.1-4-3.1c.7-1.2 2.1-1.9 4-1.9s3.3.7 4 1.9m15.6-5.2c-.3.3-2.2.6-4.1.5l-3.5-.1v9.4c0 8.8.1 9.5 2 9.5 1.8 0 2-.7 2-6.4 0-6.6 1.4-9.6 4.6-9.6.8 0 1.4-.6 1.4-1.4 0-1.7-1.4-2.8-2.4-1.9m7.4.6c-2.8 1.4-3.9 5.9-2 8.1.6.8 3.1 1.9 5.5 2.5 4.9 1.2 5.9 3.3 2.5 5.1-2.1 1.1-6-.2-6-2 0-.6-.9-1-2-1-2.5 0-2.5 1.1-.1 4.1 1.4 1.8 2.9 2.4 6.1 2.4s4.7-.6 6.1-2.4c3.7-4.5 1.5-8-5.8-9.6-3.9-.8-4.9-2.1-3.2-4.1 1.3-1.6 4.9-1 6.2 1.2 1 1.7 3.7 1.8 3.7.1 0-2-1.4-3.5-4.3-4.6-3.5-1.4-3.6-1.4-6.7.2m-129 7.5c0 10 1 11.1 9.8 11l6.2-.1v-9.3c0-8.7-.1-9.4-2-9.4-1.8 0-2 .7-2 6.3 0 7.3-1.5 10.1-5.1 9.5-2.3-.3-2.4-.7-2.7-8.1-.3-6.9-.5-7.7-2.2-7.7-1.8 0-2 .7-2 7.8m48 1.7c0 8.8.1 9.5 2 9.5s2-.7 2-9.5-.1-9.5-2-9.5-2 .7-2 9.5"/></svg>