<?xml version="1.0" standalone="no"?>
<!DOCTYPE svg PUBLIC "-//W3C//DTD SVG 20010904//EN"
 "http://www.w3.org/TR/2001/REC-SVG-20010904/DTD/svg10.dtd">
<svg version="1.0" xmlns="http://www.w3.org/2000/svg"
 width="728.000000pt" height="508.000000pt" viewBox="0 0 728.000000 508.000000"
 preserveAspectRatio="xMidYMid meet">

<g transform="translate(0.000000,508.000000) scale(0.100000,-0.100000)"
fill="#000000" stroke="none">
<path d="M3355 4534 c-342 -53 -581 -172 -647 -322 -18 -41 -20 -67 -20 -205
l0 -158 37 -60 37 -60 -25 -37 c-46 -67 -51 -88 -49 -247 2 -157 8 -186 50
-244 20 -27 23 -37 13 -50 -28 -38 -61 -119 -61 -148 0 -18 -4 -33 -10 -33 -5
0 -51 18 -102 41 -51 22 -126 54 -165 71 -40 17 -73 34 -73 38 0 3 11 12 24
19 52 28 71 69 74 161 3 70 0 92 -17 123 -19 38 -20 39 0 70 27 45 27 168 0
219 -20 36 -20 36 0 74 27 54 27 176 -1 222 -20 32 -20 32 0 69 22 41 28 160
11 206 -25 66 -121 125 -259 159 -102 25 -316 30 -417 9 -163 -34 -274 -103
-296 -185 -17 -61 -8 -170 16 -196 19 -21 19 -22 1 -53 -12 -21 -21 -59 -24
-109 -4 -66 -1 -83 17 -119 21 -39 21 -42 5 -67 -11 -17 -19 -54 -22 -104 -4
-65 -1 -84 18 -123 21 -44 21 -47 5 -65 -13 -14 -19 -42 -23 -94 -6 -94 0
-117 43 -165 70 -77 206 -120 415 -131 l135 -7 170 -77 c94 -42 199 -90 235
-106 36 -15 92 -40 125 -55 33 -15 70 -31 81 -35 12 -5 33 -32 47 -62 14 -29
34 -65 43 -80 18 -26 18 -28 -3 -50 -11 -13 -26 -33 -32 -45 -21 -40 -32 -166
-25 -277 6 -101 9 -111 41 -158 18 -28 32 -52 31 -53 -2 -1 -98 -65 -215 -143
-208 -139 -213 -141 -224 -119 -7 12 -16 25 -22 28 -5 4 2 25 17 51 23 40 26
55 26 147 0 120 -12 154 -74 207 -243 209 -912 199 -1128 -17 -54 -54 -62 -87
-57 -223 3 -70 8 -90 28 -117 19 -26 22 -35 12 -48 -31 -43 -41 -84 -41 -174
0 -79 4 -101 24 -142 l25 -48 -22 -31 c-20 -28 -22 -43 -22 -153 0 -111 2
-124 23 -153 l23 -31 -23 -37 c-19 -31 -23 -54 -26 -144 -4 -101 -3 -110 22
-152 45 -76 147 -134 311 -177 79 -20 114 -23 285 -24 217 0 288 10 415 58 92
34 165 84 200 135 23 33 25 47 25 143 0 92 -3 112 -24 153 l-24 48 25 36 c23
35 24 43 21 154 -3 102 -6 120 -26 147 l-22 30 27 40 c21 30 94 86 273 207
135 91 267 181 293 199 l49 33 69 -29 c169 -69 386 -104 644 -103 255 0 446
32 641 104 l62 23 43 -26 c24 -15 156 -103 294 -197 184 -125 257 -180 277
-210 l28 -41 -22 -30 c-21 -28 -23 -42 -23 -154 0 -112 2 -126 22 -153 l23
-31 -25 -43 c-22 -38 -25 -55 -25 -146 0 -76 4 -113 16 -138 35 -74 153 -142
319 -185 80 -21 113 -24 290 -24 175 0 212 3 296 23 162 39 269 99 316 179 24
41 25 50 21 151 -3 90 -7 113 -26 144 l-23 37 23 31 c21 29 23 42 23 153 0
112 -2 125 -23 155 l-23 32 23 32 c20 28 23 48 26 138 4 105 -4 142 -39 191
-10 13 -7 22 12 48 21 29 24 46 27 136 3 86 0 111 -16 147 -66 151 -391 250
-720 220 -209 -19 -359 -67 -448 -145 -62 -55 -74 -88 -74 -210 0 -95 2 -108
25 -141 26 -38 31 -56 17 -56 -5 0 -14 -11 -20 -25 l-12 -25 -212 141 c-117
78 -215 143 -217 145 -3 2 5 14 16 27 52 56 57 82 55 249 -2 164 -8 192 -48
245 -13 17 -24 34 -24 37 0 3 15 29 34 58 18 30 35 62 37 72 5 26 -28 9 384
191 293 129 272 123 420 128 113 4 142 8 228 37 111 37 178 87 198 147 15 48
7 171 -14 204 -16 24 -16 27 3 64 28 54 28 166 0 218 l-20 37 20 37 c28 54 28
160 -2 219 -21 43 -21 44 -2 65 16 18 19 37 19 118 0 110 -8 127 -85 180 -96
66 -229 96 -420 95 -200 -2 -354 -47 -433 -129 -42 -43 -51 -77 -45 -174 2
-50 9 -75 23 -90 18 -21 18 -22 -3 -60 -30 -53 -31 -170 -2 -224 l20 -37 -20
-37 c-28 -53 -28 -175 0 -220 20 -33 20 -33 -1 -73 -18 -34 -20 -54 -18 -126
l4 -85 48 -46 c37 -34 45 -48 35 -54 -7 -5 -16 -9 -20 -9 -4 0 -66 -27 -138
-60 -72 -33 -142 -63 -155 -66 -23 -6 -25 -3 -25 27 0 31 -33 111 -61 150 -9
12 -6 24 18 57 49 67 56 111 46 275 -9 139 -10 148 -42 198 l-32 52 19 26 c57
77 71 165 54 337 -12 115 -25 147 -85 206 -115 113 -324 195 -587 233 -132 19
-442 18 -565 -1z m-1280 -184 c133 -19 255 -74 255 -116 0 -21 -77 -65 -150
-87 -85 -24 -283 -34 -376 -18 -124 21 -225 64 -239 101 -15 38 112 100 248
120 76 11 182 11 262 0z m3415 -6 c160 -30 246 -79 217 -124 -16 -26 -112 -68
-199 -86 -113 -24 -319 -15 -423 20 -97 31 -145 66 -129 93 53 88 324 137 534
97z m-1595 -19 c220 -32 375 -88 458 -163 57 -53 19 -113 -107 -172 -161 -75
-296 -101 -561 -107 -184 -5 -226 -2 -339 17 -256 43 -446 133 -446 210 0 75
205 171 448 209 148 24 407 27 547 6z m-2264 -361 c182 -64 478 -63 635 2 33
14 38 14 53 0 22 -23 6 -44 -55 -78 -137 -74 -454 -79 -616 -9 -65 27 -92 56
-78 81 13 24 8 24 61 4z m3383 2 c47 -20 167 -44 253 -51 96 -8 259 11 352 41
69 21 77 22 88 8 17 -23 6 -41 -41 -69 -72 -42 -185 -65 -326 -65 -144 0 -241
18 -319 57 -64 33 -81 54 -62 77 16 19 14 19 55 2z m-3377 -296 c165 -63 419
-65 598 -5 70 23 95 21 95 -11 0 -21 -61 -62 -125 -84 -86 -29 -258 -44 -363
-31 -174 22 -298 82 -272 131 6 11 12 20 13 20 1 0 26 -9 54 -20z m3425 -11
c174 -56 439 -48 595 18 34 14 38 14 50 -2 56 -78 -236 -162 -471 -136 -145
16 -286 73 -286 115 0 19 23 37 40 30 8 -4 41 -15 72 -25z m-2022 -84 c359
-128 891 -123 1229 10 l65 25 23 -22 c95 -89 -134 -215 -476 -262 -287 -41
-640 -1 -836 94 -89 44 -145 90 -145 122 0 29 40 70 60 62 8 -3 44 -17 80 -29z
m-1335 -217 c71 -20 100 -23 250 -22 146 1 180 4 240 23 104 33 121 35 128 17
10 -26 -2 -42 -52 -69 -145 -79 -428 -87 -613 -17 -66 25 -105 64 -86 87 13
16 15 16 133 -19z m3346 12 c79 -27 168 -40 285 -40 112 0 187 11 287 43 62
19 68 20 84 5 15 -15 14 -19 -13 -46 -86 -85 -403 -118 -589 -61 -117 35 -163
68 -149 104 8 20 29 19 95 -5z m-2062 -344 c46 -24 249 -75 366 -93 143 -21
433 -20 571 1 150 23 279 56 382 98 32 12 35 11 53 -11 30 -36 24 -64 -22
-106 -161 -145 -662 -212 -1044 -139 -157 30 -302 89 -362 147 -36 34 -41 61
-17 95 18 26 34 27 73 8z m1 -566 c60 -30 209 -68 355 -90 306 -46 704 -10
936 85 l57 23 21 -22 c32 -34 27 -69 -14 -105 -201 -176 -827 -228 -1210 -100
-196 66 -274 141 -213 206 26 28 20 27 68 3z m-1065 -260 c99 -19 159 -39 216
-73 46 -27 54 -37 54 -62 0 -22 -8 -35 -33 -52 -43 -29 -127 -60 -216 -80 -99
-23 -375 -23 -472 0 -135 31 -237 81 -250 122 -16 47 128 122 276 144 41 6 86
13 100 15 41 8 261 -2 325 -14z m3845 1 c129 -23 205 -51 255 -94 45 -39 43
-60 -9 -95 -98 -66 -236 -96 -451 -96 -190 0 -297 20 -407 75 -96 48 -99 94
-9 142 144 78 402 106 621 68z m-4433 -496 c209 -73 531 -72 752 1 66 22 84
24 96 14 53 -44 -50 -120 -217 -158 -110 -25 -416 -24 -521 2 -150 37 -253
108 -218 150 17 21 21 20 108 -9z m3860 0 c209 -73 531 -72 753 1 75 25 83 26
97 11 43 -43 -52 -112 -202 -148 -111 -27 -324 -36 -448 -20 -208 28 -361 113
-305 169 16 16 21 16 105 -13z m-3903 -360 c210 -88 602 -89 824 -3 42 16 55
18 67 8 59 -49 -77 -137 -265 -171 -119 -21 -346 -16 -457 9 -105 25 -190 62
-224 98 -20 21 -21 27 -9 49 16 29 17 30 64 10z m3868 -4 c202 -86 572 -86
811 1 56 20 58 20 72 2 22 -29 18 -40 -22 -73 -81 -67 -234 -103 -443 -105
-84 0 -175 5 -215 12 -191 36 -324 119 -273 170 16 16 19 15 70 -7z m84 -400
c137 -34 238 -44 379 -37 147 7 194 15 318 53 83 25 89 25 105 9 41 -41 -47
-104 -209 -148 -73 -20 -107 -23 -269 -22 -161 0 -197 3 -275 23 -98 25 -132
40 -182 78 -37 27 -41 47 -17 74 15 16 19 17 43 4 15 -7 63 -23 107 -34z
m-3926 20 c122 -43 217 -56 400 -55 181 0 226 7 382 56 55 17 71 18 83 8 54
-45 -44 -113 -228 -157 -113 -28 -404 -25 -516 5 -156 41 -247 104 -212 146
17 20 25 20 91 -3z"/>
</g>
</svg>
