<svg version="1.0" xmlns="http://www.w3.org/2000/svg" width="682.667" height="682.667" viewBox="0 0 512 512"><path d="M491.5.5c-.5.2-101.8 33.3-225 73.5s-231.6 75.7-241 78.7c-14.6 4.8-17.5 6.1-20.7 9.2-6.4 6.4-6.4 15.8 0 22.1 5.5 5.3 185.6 109.7 190.8 110.5 2.6.5 5.2.2 7.5-.8 2.6-1.1 27.2-18.8 52.9-38.1 1.7-1.3-1.7 3.5-21.4 29.9-8.2 11-15.5 21.6-16.3 23.5-.9 2-1.3 5-1 7.2.7 4.9 105.4 185.6 110.7 191 2.3 2.3 5 3.9 7.3 4.3 5.9 1.1 10.7-.3 14.8-4.3 3.1-3.2 4.4-6.2 9.7-22.2C435.2 255.1 511.4 20.6 511.7 17.5c.6-6-3-12.4-8.7-15.3-4-2-8.7-2.7-11.5-1.7M469 43.7c0 .9-133.1 408.5-133.9 410-.5 1-78.6-131.5-80.6-136.9-.5-1.2 13.7-21 48.6-68 30-40.3 49.8-67.9 50.7-70.4 3.9-11.8-8.4-24.1-20.2-20.2-2.5.9-30 20.6-70.4 50.7-58.7 43.7-66.6 49.2-68.5 48.4-2-.9-136.7-79.1-137.5-79.8-.2-.2 13.3-4.7 30-10.1 16.6-5.5 108.8-35.6 204.8-67 96-31.5 175.1-57.2 175.8-57.3.6-.1 1.2.2 1.2.6M76.5 296.1c-3.1 1.7-49.5 48.1-51.1 51.1-1.9 3.7-1.8 10.6.4 14.8 2 4.1 7 7.7 11.9 8.6 7.4 1.4 9.3 0 36-26.8 21.6-21.7 25.2-25.8 25.8-29.1 1.4-7.6-2-14.8-8.6-18.2-3.3-1.7-11.5-1.9-14.4-.4"/><path d="M154.5 335.6c-3.3 1.7-111 108.7-115.6 114.8-5.1 6.8-3.4 17.9 3.4 22.8 3.2 2.3 10.9 3.5 15.4 2.4 3.4-.9 116.5-113.4 118.8-118.2 6.5-13.7-8.6-28.7-22-21.8m40 77.8c-1.6.8-14.1 12.6-27.7 26.2-20.9 21.1-24.8 25.5-25.3 28.6-1.3 6.9 1.9 14.3 7.7 17.8 3.9 2.4 11.7 2.7 15.6.6 3.2-1.8 49.5-48.2 51.1-51.3.6-1.2 1.1-4.4 1.1-7.1 0-5.4-2.5-10-7.2-13.5-3.4-2.5-11.3-3.2-15.3-1.3"/></svg>