<svg version="1.0" xmlns="http://www.w3.org/2000/svg" width="1277.333" height="333.333" viewBox="0 0 250 250"><g fill="#288fef"><path d="M205.6 30c-14.2 7.5-28 17.7-44.8 33.2l-9.7 9h-45L96 62.6c-9-8.7-32-26.9-35.7-28.3-.8-.4-2.8.9-4.8 3.1-3.3 3.6-20.1 12.5-26.6 14.1-3.4.9-3.7 2.3-2.7 14.6 1.8 21.1 8.1 47 15.8 65l4 9.1-2.5 22.6c-2.4 22.6-2.4 27.5.1 36.3 5 17.6 19.4 31.6 37 36 2.8.7 6.7 2.4 8.8 3.7 5.6 3.7 11.6 3.9 26.7.7l13-2.7 12 2.6c17.4 3.8 20.6 3.5 30-2.4.8-.5 4.7-1.8 8.6-2.9 13.4-3.9 24.4-13.3 31-26.6 5.4-10.9 6.1-17.8 4-38.1-3.3-31.2-3.4-27.6 1.7-40.4 9.6-24 14.5-47.4 15.4-74 .5-14.2.4-16-1.5-20.2-2.4-5.6-5.8-8-12-8.5-4.1-.4-5.8.1-12.7 3.7m16.5 6c1.8 1.8 2 3.3 2 14.9 0 26.4-5.2 51.6-16.1 78.1l-4.2 10.4 2.2 20.5c1.2 11.4 2.1 23.1 2.1 26.3 0 15.2-10.2 31.4-23.5 37.7-6.7 3.1-7.3 2.9-7.3-2.9-.2-16-10.6-33-26.1-42.4-3.3-2.1-6.1-4.2-6.1-4.7s-.9-1.8-2-2.9c-1.8-1.8-3.3-2-14-2-11.3 0-12.2.2-14.4 2.3-1.3 1.3-2.5 2.8-2.7 3.4s-2.1 1.9-4.1 2.9c-6.3 3.2-16.4 12.6-19.7 18.3-4.3 7.3-7 15.7-7.9 24.2l-.7 6.9-5.3-2.5c-7.2-3.3-16.5-12.4-20.1-19.6-5.3-10.6-5.6-16.2-2.8-42.6L54 139l-3.1-6.7c-7.5-16.5-15.1-45.6-16.4-62.5l-.7-8.3 8.5-4.3c4.6-2.3 10.6-6 13.2-8.2 2.7-2.2 5.2-4 5.6-4 2.9 0 36 27.5 36 29.9 0 .4-1.7 1.3-3.7 1.9-2.1.7-6 2.4-8.8 4-3.8 2.1-5 3.3-5 5.1 0 4.6 2.7 4.8 11.2.9 9-4.2 18.9-7.1 22.4-6.6 3.1.4 3.8 4.1 3.8 21 .1 13.1 1.7 19.8 4.8 19.8 2.6 0 5.1-7.4 5.7-17.1 1.5-24 1.5-23.9 4.2-23.9h2.4l-.2 18.3c-.2 16.1 0 18.7 1.5 21.1 1 1.5 2.3 2.4 2.9 2 2.1-1.3 4.6-9.1 5.2-16.4.7-8.3 3.5-22 4.8-23.4 1.2-1.4 9.7.9 18.8 5 6.6 3 8.2 3.4 9.5 2.4 3.8-3.1-.4-7.7-10.7-11.7-2.4-.9-4.7-1.9-5.1-2.3-1-.8 18.9-18.6 28.9-25.7 10.5-7.5 24.5-15.3 27.7-15.3 1.5 0 3.6.9 4.7 2M118.2 186.3c4.2 5.3 4.2 5.4.8 11.8-4.6 8.5-20.8 22.6-28.2 24.4-2.5.7-2.7.5-2.7-2.2 0-7.6 5-19.2 11.3-26 4.2-4.6 13.3-11.3 15.2-11.3.5 0 2.2 1.5 3.6 3.3m28.7-1.4c11.4 6 20.5 19.3 22 32.3.8 7.2.5 10.8-1 10.8-1.3 0-8.1-5.2-14.1-10.9-6.6-6.2-15.2-17.7-16.6-22.3-1.2-3.5-1-4.1 1.6-7.8 1.5-2.2 3.2-4 3.6-4s2.4.9 4.5 1.9m-15.3 21.4c1.9 3.5 3.5 6.9 3.5 7.5s-3 1.2-7.5 1.4c-4.1.2-7.4.1-7.2-.2s1.9-3.8 3.8-7.7c1.9-4 3.5-7.3 3.6-7.3s1.8 2.9 3.8 6.3m6 18.7c4.9.8 8.7 2.2 12.9 4.8 7.4 4.6 5.7 5.1-7.2 2.2-11.4-2.5-18.2-2.5-29.6 0-5 1.1-9.9 2-11 2-1.9 0-1.8-.3.9-2.6 1.7-1.4 4.6-3.2 6.5-4.1 4.2-1.8 15.7-4.2 18.5-3.7 1.1.1 5.1.8 9 1.4"/><path d="M120.3 151.1c-5.7 1-10.1 2.9-12.1 5.3s1.1 3.2 4.3 1.1c4.2-2.8 16-3.1 23.1-.7 6.5 2.3 9 1.6 6.1-1.7-1.6-1.8-11.7-5.2-14.7-5-.8.1-3.8.5-6.7 1m53.2-.1c-4.3 1.7-6.4 5.8-6.4 12.6 0 5.6.3 6.5 3.1 9.3 3.9 4 7.8 4.1 12 .3 2.6-2.3 3.2-3.7 3.6-8.4.4-5.7-1-10.2-3.9-12.5-2-1.6-6.1-2.2-8.4-1.3m-98.9 2.5c-2.2 2.1-2.5 3.3-2.5 9.4 0 5.9.4 7.4 2.4 9.8 3.4 3.9 9.8 3.9 13.2 0 2-2.4 2.4-3.9 2.4-9.8 0-6.1-.3-7.3-2.5-9.4-1.8-1.9-3.5-2.5-6.5-2.5s-4.7.6-6.5 2.5M690.1 80v13h32V67h-32z"/></g></svg>