<svg version="1.0" xmlns="http://www.w3.org/2000/svg" width="1277.333" height="333.333" viewBox="0 0 958 250"><path d="M190.5 20c-14.2 7.5-28 17.7-44.8 33.2l-9.7 9H91l-10.1-9.6c-9-8.7-32-26.9-35.7-28.3-.8-.4-2.8.9-4.8 3.1-3.3 3.6-20.1 12.5-26.6 14.1-3.4.9-3.7 2.3-2.7 14.6 1.8 21.1 8.1 47 15.8 65l4 9.1-2.5 22.6c-2.4 22.6-2.4 27.5.1 36.3 5 17.6 19.4 31.6 37 36 2.8.7 6.7 2.4 8.8 3.7 5.6 3.7 11.6 3.9 26.7.7l13-2.7 12 2.6c17.4 3.8 20.6 3.5 30-2.4.8-.5 4.7-1.8 8.6-2.9 13.4-3.9 24.4-13.3 31-26.6 5.4-10.9 6.1-17.8 4-38.1-3.3-31.2-3.4-27.6 1.7-40.4 9.6-24 14.5-47.4 15.4-74 .5-14.2.4-16-1.5-20.2-2.4-5.6-5.8-8-12-8.5-4.1-.4-5.8.1-12.7 3.7m16.5 6c1.8 1.8 2 3.3 2 14.9 0 26.4-5.2 51.6-16.1 78.1l-4.2 10.4 2.2 20.5c1.2 11.4 2.1 23.1 2.1 26.3 0 15.2-10.2 31.4-23.5 37.7-6.7 3.1-7.3 2.9-7.3-2.9-.2-16-10.6-33-26.1-42.4-3.3-2.1-6.1-4.2-6.1-4.7s-.9-1.8-2-2.9c-1.8-1.8-3.3-2-14-2-11.3 0-12.2.2-14.4 2.3-1.3 1.3-2.5 2.8-2.7 3.4s-2.1 1.9-4.1 2.9c-6.3 3.2-16.4 12.6-19.7 18.3-4.3 7.3-7 15.7-7.9 24.2l-.7 6.9-5.3-2.5c-7.2-3.3-16.5-12.4-20.1-19.6-5.3-10.6-5.6-16.2-2.8-42.6l2.6-23.3-3.1-6.7c-7.5-16.5-15.1-45.6-16.4-62.5l-.7-8.3 8.5-4.3c4.6-2.3 10.6-6 13.2-8.2 2.7-2.2 5.2-4 5.6-4 2.9 0 36 27.5 36 29.9 0 .4-1.7 1.3-3.7 1.9-2.1.7-6 2.4-8.8 4-3.8 2.1-5 3.3-5 5.1 0 4.6 2.7 4.8 11.2.9 9-4.2 18.9-7.1 22.4-6.6 3.1.4 3.8 4.1 3.8 21 .1 13.1 1.7 19.8 4.8 19.8 2.6 0 5.1-7.4 5.7-17.1 1.5-24 1.5-23.9 4.2-23.9h2.4l-.2 18.3c-.2 16.1 0 18.7 1.5 21.1 1 1.5 2.3 2.4 2.9 2 2.1-1.3 4.6-9.1 5.2-16.4.7-8.3 3.5-22 4.8-23.4 1.2-1.4 9.7.9 18.8 5 6.6 3 8.2 3.4 9.5 2.4 3.8-3.1-.4-7.7-10.7-11.7-2.4-.9-4.7-1.9-5.1-2.3-1-.8 18.9-18.6 28.9-25.7 10.5-7.5 24.5-15.3 27.7-15.3 1.5 0 3.6.9 4.7 2M103.1 176.3c4.2 5.3 4.2 5.4.8 11.8-4.6 8.5-20.8 22.6-28.2 24.4-2.5.7-2.7.5-2.7-2.2 0-7.6 5-19.2 11.3-26 4.2-4.6 13.3-11.3 15.2-11.3.5 0 2.2 1.5 3.6 3.3m28.7-1.4c11.4 6 20.5 19.3 22 32.3.8 7.2.5 10.8-1 10.8-1.3 0-8.1-5.2-14.1-10.9-6.6-6.2-15.2-17.7-16.6-22.3-1.2-3.5-1-4.1 1.6-7.8 1.5-2.2 3.2-4 3.6-4s2.4.9 4.5 1.9m-15.3 21.4c1.9 3.5 3.5 6.9 3.5 7.5s-3 1.2-7.5 1.4c-4.1.2-7.4.1-7.2-.2s1.9-3.8 3.8-7.7c1.9-4 3.5-7.3 3.6-7.3s1.8 2.9 3.8 6.3m6 18.7c4.9.8 8.7 2.2 12.9 4.8 7.4 4.6 5.7 5.1-7.2 2.2-11.4-2.5-18.2-2.5-29.6 0-5 1.1-9.9 2-11 2-1.9 0-1.8-.3.9-2.6 1.7-1.4 4.6-3.2 6.5-4.1 4.2-1.8 15.7-4.2 18.5-3.7 1.1.1 5.1.8 9 1.4"/><path d="M105.2 141.1c-5.7 1-10.1 2.9-12.1 5.3s1.1 3.2 4.3 1.1c4.2-2.8 16-3.1 23.1-.7 6.5 2.3 9 1.6 6.1-1.7-1.6-1.8-11.7-5.2-14.7-5-.8.1-3.8.5-6.7 1m53.2-.1c-4.3 1.7-6.4 5.8-6.4 12.6 0 5.6.3 6.5 3.1 9.3 3.9 4 7.8 4.1 12 .3 2.6-2.3 3.2-3.7 3.6-8.4.4-5.7-1-10.2-3.9-12.5-2-1.6-6.1-2.2-8.4-1.3m-98.9 2.5c-2.2 2.1-2.5 3.3-2.5 9.4 0 5.9.4 7.4 2.4 9.8 3.4 3.9 9.8 3.9 13.2 0 2-2.4 2.4-3.9 2.4-9.8 0-6.1-.3-7.3-2.5-9.4-1.8-1.9-3.5-2.5-6.5-2.5s-4.7.6-6.5 2.5M675 70v13h32V57h-32zm-407.5-9.6c-9.7 2.4-15.6 7.3-19.7 16.1-2.1 4.6-2.3 6.4-2.3 22.5 0 16.8.1 17.7 2.6 23 3.3 7 6.9 10.6 13.9 13.9 5.5 2.6 5.6 2.6 34.8 2.9l29.2.3V150c0 12.5-1 14.7-7.6 15.9-3.9.7-34.9 0-59.6-1.4l-12.8-.8v25l19.3 1.4c10.5.7 31.1 1.3 45.7 1.4 25.8 0 26.6-.1 31.8-2.4 6.9-3.1 12.7-9.8 15-17 2.4-7.8 2.4-32.2-.1-40.2-2.2-7.3-8-13.9-14.9-17-5-2.2-6.7-2.4-31.3-2.9-28.4-.5-30.4-.9-32.5-6.6-1.7-4.4-1.2-12.6 1-16.2 1.1-1.7 2.1-3.3 2.2-3.4.2-.1 15.2-.5 33.3-.8l33-.5.3-12.8.3-12.7-38.3.1c-26.8 0-39.8.4-43.3 1.3M484 124.5V190h39c34 0 39.5-.2 43.2-1.7 6.9-2.6 11.8-7.1 14.7-13.3l2.6-5.5v-61l-2.5-4.9c-3-5.9-8.8-10.8-15.3-13-6.3-2.1-21.7-2-37 .2-6.5 1-12.1 1.4-12.3 1-.3-.5-.4-7.9-.3-16.6l.2-15.7-16.2-.3L484 59zm64.8-8.9c2.2 1.5 2.2 1.9 2.2 23.8 0 28.2 1.6 26.1-19.4 26.1h-15.1l-.3-23.9c-.1-13.2.2-24.4.6-24.8 2.8-2.8 28.4-3.8 32-1.2m53.2-.9c0 35.4.4 57.2 1 59.5 1.6 5.7 6.9 11.9 12.9 15 4.7 2.5 6.4 2.8 14.6 2.8 5 0 12-.3 15.4-.6l6.1-.7v-11.8c0-6.6-.3-11.9-.7-12-.5 0-3.6-.1-7.1-.3-10.5-.4-9.7 4.2-10-55.6l-.3-52H602zM779.8 91c-4.3 1.1-10.9 3.5-14.7 5.5-3.9 1.9-7.2 3.1-7.4 2.7s-.7-2.4-1.1-4.5l-.7-3.7H727v99h33v-70.8l4.8-1.2c2.6-.6 9.8-1.4 16-1.7 16.6-.8 15.2-4.5 15.2 38.4V190h33.1l-.3-40.8c-.3-40.5-.3-40.7-2.7-45.5-5-10.1-14.6-14.8-30.2-14.6-4.6 0-11.9.9-16.1 1.9m84.9-.6c-7.2 2-12.7 6.5-16.2 13.2l-3 5.8-.3 29.9c-.2 25.3 0 30.7 1.3 34.7 2.4 7.3 6.4 12.1 12.6 15.3 5.3 2.6 5.8 2.7 22.9 2.7 9.6 0 25.6-.7 35.5-1.5s18.8-1.5 19.8-1.5c1.5 0 1.7-1.2 1.7-11.6v-11.7l-7.7.7c-12.9 1-46.8 1.9-49.5 1.3-3-.8-4.8-4.4-4.8-9.7v-4h31.8c17.4 0 32.3-.4 33.1-.9 2.1-1.3 1.1-42.2-1.2-47.4-2.5-5.4-8-11.2-13.5-13.8-4.5-2.3-5.7-2.4-31.2-2.6-19.5-.2-27.8.1-31.3 1.1m43.1 23.2c2 1.3 2.2 2.4 2.2 9.5v7.9l-16.2-.2-16.3-.3v-7.3c0-10.5 1-11.2 16.4-11.2 8.9 0 12.2.4 13.9 1.6M365.3 92.7c.3 1 9.1 22.3 19.7 47.3s19.4 47.1 19.7 49.1c.4 2.8 0 4.1-2 6.5-2.5 2.8-2.8 2.9-13.6 3.2l-11.1.4v11.9c0 10.6.2 11.9 1.8 12 .9 0 6.7.4 12.7.8 12.5.9 20.8 0 26.9-3.1 5.7-2.8 12.6-10.4 16.4-18 2.5-5 41.2-109.5 41.2-111.4 0-.2-7.7-.3-17.1-.2l-17.1.3-2.9 9.5c-10.1 32.9-16.3 52.6-16.8 53.2-.3.4-5.9-13.7-12.5-31.3L398.8 91h-17c-15.8 0-17 .1-16.5 1.7M661 107.5V120h14v70h32V95h-46z"/></svg>