<?xml version="1.0" standalone="no"?>
<!DOCTYPE svg PUBLIC "-//W3C//DTD SVG 20010904//EN"
 "http://www.w3.org/TR/2001/REC-SVG-20010904/DTD/svg10.dtd">
<svg version="1.0" xmlns="http://www.w3.org/2000/svg"
 width="980.000000pt" height="980.000000pt" viewBox="0 0 980.000000 980.000000"
 preserveAspectRatio="xMidYMid meet">

<g transform="translate(0.000000,980.000000) scale(0.100000,-0.100000)"
fill="#000000" stroke="none">
<path d="M4560 9789 c-1035 -75 -1998 -463 -2800 -1128 -150 -123 -501 -475
-622 -621 -881 -1068 -1270 -2403 -1098 -3765 119 -934 501 -1801 1124 -2545
98 -117 370 -393 496 -504 1328 -1166 3158 -1531 4825 -962 905 309 1703 881
2296 1646 456 589 776 1292 923 2030 300 1503 -115 3044 -1130 4200 -112 128
-386 398 -509 501 -763 642 -1665 1026 -2665 1134 -174 19 -664 27 -840 14z
m-980 -1392 c452 -107 823 -427 990 -853 174 -445 111 -939 -167 -1326 -75
-103 -237 -259 -345 -331 -262 -174 -592 -258 -898 -227 -329 32 -604 159
-844 389 -194 187 -320 401 -388 661 -40 151 -50 378 -24 540 85 538 515 1006
1046 1139 138 34 196 40 365 36 125 -3 183 -9 265 -28z m3087 -623 c148 -22
260 -56 398 -123 140 -68 237 -135 342 -234 228 -217 379 -511 424 -825 15
-110 6 -402 -16 -502 -60 -274 -178 -499 -361 -690 -402 -419 -1027 -536
-1551 -290 -401 188 -689 574 -768 1029 -20 112 -19 356 1 485 30 187 115 407
220 566 282 429 801 660 1311 584z m-2457 -2439 c199 -3 366 -10 430 -19 101
-14 711 -124 717 -129 5 -5 -274 -186 -382 -248 -60 -35 -234 -123 -385 -197
-596 -291 -659 -323 -779 -392 -246 -141 -445 -305 -562 -460 -258 -343 -262
-827 -9 -1412 22 -51 40 -99 40 -106 0 -7 -188 -137 -417 -289 -230 -151 -476
-315 -548 -363 -156 -105 -213 -138 -256 -150 -31 -9 -35 -7 -127 83 -167 164
-277 336 -307 482 -31 157 -37 301 -30 726 l7 416 -48 7 c-63 8 -134 8 -134
-1 2 -36 -106 -803 -113 -803 -21 0 -150 103 -250 200 -262 252 -438 571 -521
941 -127 569 28 1158 377 1434 180 144 406 223 747 262 221 25 1484 34 2550
18z m2779 -524 c799 -110 1435 -416 1704 -822 68 -102 182 -336 231 -472 44
-120 76 -274 76 -361 0 -209 -99 -415 -312 -648 -79 -88 -336 -324 -343 -316
-2 2 -77 177 -165 388 -89 212 -165 388 -169 392 -4 4 -34 4 -66 0 l-60 -7 3
-100 c2 -55 13 -188 24 -295 11 -107 22 -287 25 -400 9 -365 -35 -507 -221
-698 -133 -138 -273 -229 -650 -424 -137 -70 -255 -133 -262 -139 -14 -12 19
-52 -841 1034 l-450 567 49 114 c200 467 133 930 -201 1376 -75 100 -265 296
-373 383 -49 39 -88 74 -88 77 0 11 161 97 270 143 252 108 555 185 850 216
58 6 119 13 135 15 17 2 176 3 355 1 262 -2 355 -7 479 -24z m-2460 -606 c390
-82 730 -433 807 -833 18 -96 18 -259 -1 -359 -85 -447 -411 -744 -871 -794
-194 -20 -384 12 -563 97 -270 127 -465 367 -538 660 -25 101 -24 343 1 444
26 102 83 232 141 321 71 109 241 272 350 336 103 61 211 105 310 126 92 20
275 21 364 2z m216 -2155 c413 -28 746 -99 950 -203 217 -111 361 -359 420
-722 23 -137 20 -203 -10 -247 -36 -53 -143 -129 -285 -202 -232 -119 -342
-146 -770 -191 -135 -14 -275 -30 -312 -35 -65 -10 -72 -8 -375 76 -961 266
-1419 413 -1605 517 -176 99 -253 233 -213 373 52 182 269 373 534 468 217 78
563 139 936 165 173 12 555 12 730 1z"/>
</g>
</svg>
