<svg version="1.0" xmlns="http://www.w3.org/2000/svg" width="682.667" height="682.667" viewBox="0 0 512 512"><path d="M408.9 85.9c-35.6 18.3-41.2 21.5-43.3 24.4-2 2.7-2.1 4.4-2.5 26.6l-.3 23.8-6.3 3.1-6.3 3.1-4.3-6.2c-29.6-42.1-75-69-126.1-74.6-64.9-7.2-130.4 24.2-166 79.4-13.9 21.5-23.4 47.7-26.9 74.2-1.7 13-.6 41.8 2 54.8 4.8 23.6 14.9 47.4 28.6 67 9.9 14.3 30.9 35.1 44.9 44.4 47.5 31.5 102.3 39 155.6 21.2 52.4-17.6 93.7-59.7 110.8-113.2 5.3-16.3 7.2-27.9 7.9-45.9.9-25.6-2.7-47.9-11.2-69.6-1.9-4.8-3.4-8.9-3.2-9 .1-.1 2.9-1.5 6.2-3.2l6-3 19.3 13.2c17.2 11.6 19.9 13.1 23.6 13.1 3.3 0 9.6-2.9 33.6-15.3 17-8.9 30.7-16.6 32.3-18.3 3.7-4 3.9-11.4.3-15.6-1.3-1.5-10.8-8.4-21-15.3l-18.7-12.5.6-23c.5-20.9.4-23.3-1.2-26.4-2.2-4.1-5.7-6.9-9.9-7.7-2.6-.5-6.5 1.1-24.5 10.5m-178.4 27.6c27.9 5.6 53.4 18.9 73.7 38.3 8.6 8.3 22.8 25.2 22.8 27.1 0 .3-6.3 3.8-13.9 7.8l-13.9 7.2-4-5.2c-12.8-17-33.3-32-53.6-39.2-30.8-11-63-9.3-92.1 4.9C108.2 174.6 83 215 83 261.1c0 58.8 44.2 109.2 102.7 117 10.9 1.4 30.1.7 40.8-1.6 33.4-7 63.9-30.4 79.8-61.2 9.3-18.1 13.2-34.2 13.1-55.3 0-14.4-1.6-24.4-5.9-37l-2.4-6.9 13.7-7.1c7.5-3.8 14-7 14.3-7 1 0 7.6 20.5 9.6 30 1.4 6.6 1.8 13 1.8 29 0 23.1-1.5 32.7-8.1 50.9-14.5 40-46.4 72.8-85.9 88.4-46.1 18.2-97.1 12.7-139-15-13.1-8.7-31.8-27.3-40.4-40.2-11.9-17.9-20-38.1-23.8-59.1-2.5-14.2-2.3-38.3.5-52.7 12-60.8 58-107.4 118.2-119.8 16.7-3.5 41.4-3.5 58.5 0m188.5 7c0 12.2 2 9.8-17.3 19.9l-12.8 6.7.3-11.2.3-11.2 14-7.3c7.7-4.1 14.3-7.4 14.8-7.4.4 0 .7 4.7.7 10.5m21.3 40.3c4.2 2.9 7.7 5.4 7.7 5.6 0 .3-6.6 3.9-14.6 8.1l-14.7 7.7-8.3-5.7c-4.6-3.1-8.6-6-8.8-6.4-.7-1 28.7-16 29.9-15.3.6.4 4.5 3.1 8.8 6m-213.9 10.7c17 5 30.2 13 42.5 26l7.3 7.8-9.5 5.1c-5.2 2.8-13 6.8-17.4 9l-8 3.8-6.3-5c-7.5-6.1-16.6-9.9-27-11.4-9.7-1.5-21.2.5-30.9 5.3-8.6 4.2-19.7 15.1-24 23.6-15.8 31.5.9 68.8 34.9 77.8 21.4 5.7 46.3-3.7 58.6-22.2 6.3-9.5 8.6-17.2 8.8-28.8 0-5.5-.2-11.6-.6-13.5l-.8-3.5 16.6-8.5c9.1-4.7 16.9-8.6 17.4-8.8.4-.2 1.8 3.4 3.1 8 3.2 11.1 3.5 36.3.5 47.3-2.4 9.1-9.4 24.1-15 31.9-12.7 17.7-33.6 31.3-55.9 36.2-9.4 2.1-28.9 2.2-38.2.1-36-7.8-64.7-36.5-71.9-71.9-1.8-8.8-2.1-26.6-.5-35.4 6.7-37.9 36.1-67.6 74.4-75 11.2-2.2 30.9-1.2 41.9 2.1m-16.9 61.6c8.2 2.1 7.6 3.1-4.4 9.3-6.1 3.1-12 6.9-13.5 8.7-4.6 5.5-2.9 15.2 3.4 18.4 5.2 2.7 9.3 1.9 22-4.5 6.6-3.3 12.2-6 12.5-6 1.4 0 .2 9.1-1.9 13.6-10.2 21.9-40.3 22.8-51.3 1.5-6.4-12.2-3.8-26 6.4-35 7.3-6.5 16.6-8.6 26.8-6"/></svg>