<?xml version="1.0" standalone="no"?>
<!DOCTYPE svg PUBLIC "-//W3C//DTD SVG 20010904//EN"
 "http://www.w3.org/TR/2001/REC-SVG-20010904/DTD/svg10.dtd">
<svg version="1.0" xmlns="http://www.w3.org/2000/svg"
 width="512.000000pt" height="512.000000pt" viewBox="0 0 512.000000 512.000000"
 preserveAspectRatio="xMidYMid meet">

<g transform="translate(0.000000,512.000000) scale(0.100000,-0.100000)"
fill="#000000" stroke="none">
<path d="M4089 4261 c-356 -183 -412 -215 -433 -244 -20 -27 -21 -44 -25 -266
l-3 -238 -63 -31 -63 -31 -43 62 c-296 421 -750 690 -1261 746 -649 72 -1304
-242 -1660 -794 -139 -215 -234 -477 -269 -742 -17 -130 -6 -418 20 -548 48
-236 149 -474 286 -670 99 -143 309 -351 449 -444 475 -315 1023 -390 1556
-212 524 176 937 597 1108 1132 53 163 72 279 79 459 9 256 -27 479 -112 696
-19 48 -34 89 -32 90 1 1 29 15 62 32 l60 30 193 -132 c172 -116 199 -131 236
-131 33 0 96 29 336 153 170 89 307 166 323 183 37 40 39 114 3 156 -13 15
-108 84 -210 153 l-187 125 6 230 c5 209 4 233 -12 264 -22 41 -57 69 -99 77
-26 5 -65 -11 -245 -105z m-1784 -276 c279 -56 534 -189 737 -383 86 -83 228
-252 228 -271 0 -3 -63 -38 -139 -78 l-139 -72 -40 52 c-128 170 -333 320
-536 392 -308 110 -630 93 -921 -49 -413 -202 -665 -606 -665 -1067 0 -588
442 -1092 1027 -1170 109 -14 301 -7 408 16 334 70 639 304 798 612 93 181
132 342 131 553 0 144 -16 244 -59 370 l-24 69 137 71 c75 38 140 70 143 70
10 0 76 -205 96 -300 14 -66 18 -130 18 -290 0 -231 -15 -327 -81 -509 -145
-400 -464 -728 -859 -884 -461 -182 -971 -127 -1390 150 -131 87 -318 273
-404 402 -119 179 -200 381 -238 591 -25 142 -23 383 5 527 120 608 580 1074
1182 1198 167 35 414 35 585 0z m1885 -70 c0 -122 20 -98 -173 -199 l-128 -67
3 112 3 112 140 73 c77 41 143 74 148 74 4 0 7 -47 7 -105z m213 -403 c42 -29
77 -54 77 -56 0 -3 -66 -39 -146 -81 l-147 -77 -83 57 c-46 31 -86 60 -88 64
-7 10 287 160 299 153 6 -4 45 -31 88 -60z m-2139 -107 c170 -50 302 -130 425
-260 l73 -78 -95 -51 c-52 -28 -130 -68 -174 -90 l-80 -38 -63 50 c-75 61
-166 99 -270 114 -97 15 -212 -5 -309 -53 -86 -42 -197 -151 -240 -236 -158
-315 9 -688 349 -778 214 -57 463 37 586 222 63 95 86 172 88 288 0 55 -2 116
-6 135 l-8 35 166 85 c91 47 169 86 174 88 4 2 18 -34 31 -80 32 -111 35 -363
5 -473 -24 -91 -94 -241 -150 -319 -127 -177 -336 -313 -559 -362 -94 -21
-289 -22 -382 -1 -360 78 -647 365 -719 719 -18 88 -21 266 -5 354 67 379 361
676 744 750 112 22 309 12 419 -21z m-169 -616 c82 -21 76 -31 -44 -93 -61
-31 -120 -69 -135 -87 -46 -55 -29 -152 34 -184 52 -27 93 -19 220 45 66 33
122 60 125 60 14 0 2 -91 -19 -136 -102 -219 -403 -228 -513 -15 -64 122 -38
260 64 350 73 65 166 86 268 60z"/>
</g>
</svg>
