<svg version="1.0" xmlns="http://www.w3.org/2000/svg" width="682.667" height="682.667" viewBox="0 0 512 512"><path d="M167 27.1C96.7 31.3 39.6 52.8 26.3 79.9c-3.8 7.7-3.8 17.3-.1 24.6C38.9 129.1 83 147.9 146 155.7c20.6 2.5 72.5 2.5 93 0 40.7-5 73.7-14.5 95.4-27.4 9.8-5.9 21.4-17 24.7-23.8 3.5-7.4 3.4-18-.4-25.3-18-34.4-102.8-57.4-191.7-52.1"/><path d="m23.2 162.7.3 44.8 2.4 4.8c11.7 23.9 53.7 42.6 114.1 50.9 18.9 2.5 64.5 3.6 85.4 1.9 39.6-3.2 73.3-11.1 98.2-23 13.3-6.3 20.6-11.4 28.1-19.4 10.5-11.2 10.3-10.2 10.3-61v-43.3l-5.3 5.1c-31 30-107.2 47.9-185.7 43.6-66.1-3.6-117.8-19.5-142.4-43.7l-5.7-5.5zm313.6 16.2c1 6.6-24.7 19.6-52.7 26.6-24.5 6.2-79.1 11.7-84.9 8.6-2.8-1.5-3-6.6-.4-7.9.9-.5 9.1-1.2 18.2-1.6 30.1-1.1 56.2-5.4 79.3-13 13.9-4.6 25.4-9.9 30.3-13.9 1.6-1.3 3.6-2.6 4.4-2.9 2.1-.8 5.4 1.5 5.8 4.1m-263-2.5c6 3.1 9.4 8.8 9.4 15.6 0 18.8-25.6 24.6-33.3 7.6-4-8.9-1.2-17.2 7.6-22.7 3.6-2.3 12.4-2.5 16.3-.5m46.3 13.1c1.5.8 4.1 3.2 5.6 5.2 2.4 3.1 2.8 4.6 2.8 10.3 0 5.8-.4 7.1-2.9 10.4-3.2 4.2-9.5 7.6-14.1 7.6-1.6 0-4.9-.9-7.1-1.9-10.7-4.9-13.8-18.7-6.1-27.5 5.5-6.3 14.3-7.9 21.8-4.1"/><path d="M62.3 185c-4.9 2-5.9 9.6-1.7 12.9 3.6 2.8 7.9 2.7 10.9-.4 3.3-3.3 3.2-7-.4-10.6-3-3-5-3.4-8.8-1.9m44.2 14.2c-5.4 4.7-2.1 13.8 5 13.8s10.5-9 5.1-13.7c-3.4-2.9-6.7-2.9-10.1-.1m-83.3 71.4.3 43.9 2.6 5.6C43.3 356.8 140.7 381.2 233 372c17-1.7 16-1.2 16-7.9 0-8.6 2.6-22.2 6.6-34 1.9-5.7 3.3-10.5 3.2-10.7-.2-.1-5 .4-10.8 1.2-15.5 2.1-47.5 3-49.5 1.4-1.8-1.5-2-5.4-.2-6.7.6-.6 10.2-1.5 21.2-2.2 19.4-1 43.3-3.7 45.2-5 .5-.3 3.1-3.9 5.7-7.9 17.8-27 48.8-47 81.9-52.8l9.7-1.8v-18.8l-6.3 5.8c-22.9 21.2-65.1 35.8-120.7 41.6-16.3 1.7-69.7 1.7-85-.1-57.6-6.4-96.8-20-120.8-41.6l-6.3-5.7zm50.5 14.5c13.1 6.4 12.5 26.7-1 31.8-4 1.5-11.3 1.4-14.6-.3-13.2-6.9-13-25.6.3-31.7 5.4-2.4 10-2.4 15.3.2m44 12c13.5 5.1 15.2 24.2 2.7 31.5-17.3 10.2-35.3-12.3-21.6-27 4.9-5.2 12.4-7 18.9-4.5"/><path d="M60.2 295.3c-2.2 2.3-2.8 6-1.6 9.2.7 1.8 5.5 4.5 7.9 4.5 2.6 0 7.5-5.5 7.5-8.5 0-6.5-9.3-10-13.8-5.2M106 308c-3 3-3 8.3.1 11.4 3.9 4.1 12.4 1.5 12.9-3.9.6-6.1-2.1-9.5-7.5-9.5-2.2 0-4.3.8-5.5 2m251.7-52c-14.7 2.3-29.8 7.6-41.7 14.5-52.3 30.5-72.4 95.9-46 150.1 20.9 43 67.7 69.5 114.2 64.5 27.9-3 51.4-14.1 70.6-33.3 37.3-37.2 44.7-94.4 18.3-139.7-15.8-27-43.4-47.3-73.8-54.2-10.1-2.3-32.6-3.3-41.6-1.9M340 298.5c.8 1 1 2.9.6 5.5l-.6 4.1 3.9-2.1c11.9-6 32.6-8.1 46.1-4.6 30.5 7.9 51.8 33.3 53.7 64.2.7 10.9-.8 20-4.9 30.7-3.2 8.4-6.2 11.2-9.6 9-2.4-1.5-2-6.5 1.3-14.8 3.3-8.5 4.5-24.2 2.6-33.4-5-22.6-24.3-41.8-47.2-46.7-9.8-2.1-22-1.3-31.8 2-9 3-10.3 4.1-6 5 4.1.8 5.9 2.3 5.9 5 0 5-3 5.6-14.7 2.7-10.9-2.7-11.3-2.9-11.3-6.3 0-4.3 3-17 4.6-19.6 1.7-2.5 5.5-2.9 7.4-.7m-20.5 37.9c1.5 2.3 1.5 2.7-.5 6.6-5.5 10.9-7.4 28.2-4.5 40.8 7.2 30.6 38.1 51.2 68.5 45.9 4.7-.8 10.3-2.2 12.5-3.2l4-1.7-3.2-.9c-5.6-1.6-6.9-8.2-1.9-9.5 3.3-.8 20.7 3.8 22 5.8 1.2 2-1.7 18-4 21.5-3.1 5-9 1.5-8-4.7l.6-3.7-8.3 3c-7.6 2.8-9.2 3.1-22.2 3.1-12.9.1-14.7-.1-22.9-2.8-21.7-7.1-38.7-24.7-45.7-47.6-3-9.6-3.2-27-.5-36.9 1.9-6.9 6.1-16.1 8-17.3 2.1-1.4 4.6-.8 6.1 1.6"/><path d="m23.2 378.1.3 44.4 2.4 4.8C39 454 91.8 474.7 160.3 480.1c19.1 1.4 64 .6 80.7-1.5 19.4-2.4 36.3-5.6 48.7-9.2l5.1-1.5-9.1-9.2c-7.8-7.8-15.2-17.5-22-28.8l-1.5-2.6-9.4 1.3c-22.8 3.1-52.5 4.3-54.6 2.2-1.9-1.9-1.5-6.6.7-7.8 1.1-.5 6.7-1 12.4-1 10.1 0 39.5-2.4 44.4-3.6 1.7-.5 2.2-1.1 1.8-2.3-3.5-8.6-6.6-20.7-8-31.4l-.6-4.9-3.7.6c-18 2.8-67.4 3.7-90.1 1.6-29-2.7-53.3-7.4-74.8-14.6-23.2-7.7-39.3-16.5-51-27.7l-6.4-6.1zm53.2 17.2c7.3 5.6 9 14.9 4.2 23.1-7.6 12.9-26.8 10.5-31.6-4-2.5-7.5 1-15.9 8.5-20.6 4.6-2.9 14.1-2.1 18.9 1.5m39.1 9.8c9.1 2.5 14 9.4 13.3 18.6-.9 11-11.6 18.5-21.9 15.4-17.2-5.2-17.2-29 .1-33.9 1.9-.6 3.7-1.1 4-1.1.3-.1 2.3.4 4.5 1"/><path d="M62.5 402.2c-3.1 1.7-4.5 3.9-4.5 7.3 0 6.8 8.6 10 13.5 5 3.3-3.3 3.2-7-.4-10.6-3.1-3.1-5.3-3.5-8.6-1.7m44.1 14c-5.5 5-2.4 13.8 4.8 13.8 8-.1 11-9.8 4.4-14.4-3.1-2.2-6.2-2-9.2.6"/></svg>