<?xml version="1.0" standalone="no"?>
<!DOCTYPE svg PUBLIC "-//W3C//DTD SVG 20010904//EN"
 "http://www.w3.org/TR/2001/REC-SVG-20010904/DTD/svg10.dtd">
<svg version="1.0" xmlns="http://www.w3.org/2000/svg"
 width="512.000000pt" height="512.000000pt" viewBox="0 0 512.000000 512.000000"
 preserveAspectRatio="xMidYMid meet">

<g transform="translate(0.000000,512.000000) scale(0.100000,-0.100000)"
fill="#000000" stroke="none">
<path d="M1670 4849 c-703 -42 -1274 -257 -1407 -528 -38 -77 -38 -173 -1
-246 127 -246 568 -434 1198 -512 206 -25 725 -25 930 0 407 50 737 145 954
274 98 59 214 170 247 238 35 74 34 180 -4 253 -180 344 -1028 574 -1917 521z"/>
<path d="M232 3493 l3 -448 24 -48 c117 -239 537 -426 1141 -509 189 -25 645
-36 854 -19 396 32 733 111 982 230 133 63 206 114 281 194 105 112 103 102
103 610 l0 433 -53 -51 c-310 -300 -1072 -479 -1857 -436 -661 36 -1178 195
-1424 437 l-57 55 3 -448z m3136 -162 c10 -66 -247 -196 -527 -266 -245 -62
-791 -117 -849 -86 -28 15 -30 66 -4 79 9 5 91 12 182 16 301 11 562 54 793
130 139 46 254 99 303 139 16 13 36 26 44 29 21 8 54 -15 58 -41z m-2630 25
c60 -31 94 -88 94 -156 0 -188 -256 -246 -333 -76 -40 89 -12 172 76 227 36
23 124 25 163 5z m463 -131 c15 -8 41 -32 56 -52 24 -31 28 -46 28 -103 0 -58
-4 -71 -29 -104 -32 -42 -95 -76 -141 -76 -16 0 -49 9 -71 19 -107 49 -138
187 -61 275 55 63 143 79 218 41z"/>
<path d="M623 3270 c-49 -20 -59 -96 -17 -129 36 -28 79 -27 109 4 33 33 32
70 -4 106 -30 30 -50 34 -88 19z"/>
<path d="M1065 3128 c-54 -47 -21 -138 50 -138 71 0 105 90 51 137 -34 29 -67
29 -101 1z"/>
<path d="M232 2414 l3 -439 26 -56 c172 -367 1146 -611 2069 -519 170 17 160
12 160 79 0 86 26 222 66 340 19 57 33 105 32 107 -2 1 -50 -4 -108 -12 -155
-21 -475 -30 -495 -14 -18 15 -20 54 -2 67 6 6 102 15 212 22 194 10 433 37
452 50 5 3 31 39 57 79 178 270 488 470 819 528 l97 18 0 94 0 94 -63 -58
c-229 -212 -651 -358 -1207 -416 -163 -17 -697 -17 -850 1 -576 64 -968 200
-1208 416 l-63 57 3 -438z m505 -145 c131 -64 125 -267 -10 -318 -40 -15 -113
-14 -146 3 -132 69 -130 256 3 317 54 24 100 24 153 -2z m440 -120 c135 -51
152 -242 27 -315 -173 -102 -353 123 -216 270 49 52 124 70 189 45z"/>
<path d="M602 2167 c-22 -23 -28 -60 -16 -92 7 -18 55 -45 79 -45 26 0 75 55
75 85 0 65 -93 100 -138 52z"/>
<path d="M1060 2040 c-30 -30 -30 -83 1 -114 39 -41 124 -15 129 39 6 61 -21
95 -75 95 -22 0 -43 -8 -55 -20z"/>
<path d="M3577 2560 c-147 -23 -298 -76 -417 -145 -523 -305 -724 -959 -460
-1501 209 -430 677 -695 1142 -645 279 30 514 141 706 333 373 372 447 944
183 1397 -158 270 -434 473 -738 542 -101 23 -326 33 -416 19z m-177 -425 c8
-10 10 -29 6 -55 l-6 -41 39 21 c119 60 326 81 461 46 305 -79 518 -333 537
-642 7 -109 -8 -200 -49 -307 -32 -84 -62 -112 -96 -90 -24 15 -20 65 13 148
33 85 45 242 26 334 -50 226 -243 418 -472 467 -98 21 -220 13 -318 -20 -90
-30 -103 -41 -60 -50 41 -8 59 -23 59 -50 0 -50 -30 -56 -147 -27 -109 27
-113 29 -113 63 0 43 30 170 46 196 17 25 55 29 74 7z m-205 -379 c15 -23 15
-27 -5 -66 -55 -109 -74 -282 -45 -408 72 -306 381 -512 685 -459 47 8 103 22
125 32 l40 17 -32 9 c-56 16 -69 82 -19 95 33 8 207 -38 220 -58 12 -20 -17
-180 -40 -215 -31 -50 -90 -15 -80 47 l6 37 -83 -30 c-76 -28 -92 -31 -222
-31 -129 -1 -147 1 -229 28 -217 71 -387 247 -457 476 -30 96 -32 270 -5 369
19 69 61 161 80 173 21 14 46 8 61 -16z"/>
<path d="M232 1339 l3 -444 24 -48 c131 -267 659 -474 1344 -528 191 -14 640
-6 807 15 194 24 363 56 487 92 l51 15 -91 92 c-78 78 -152 175 -220 288 l-15
26 -94 -13 c-228 -31 -525 -43 -546 -22 -19 19 -15 66 7 78 11 5 67 10 124 10
101 0 395 24 444 36 17 5 22 11 18 23 -35 86 -66 207 -80 314 l-6 49 -37 -6
c-180 -28 -674 -37 -901 -16 -290 27 -533 74 -748 146 -232 77 -393 165 -510
277 l-64 61 3 -445z m532 -172 c73 -56 90 -149 42 -231 -76 -129 -268 -105
-316 40 -25 75 10 159 85 206 46 29 141 21 189 -15z m391 -98 c91 -25 140 -94
133 -186 -9 -110 -116 -185 -219 -154 -172 52 -172 290 1 339 19 6 37 11 40
11 3 1 23 -4 45 -10z"/>
<path d="M625 1098 c-31 -17 -45 -39 -45 -73 0 -68 86 -100 135 -50 33 33 32
70 -4 106 -31 31 -53 35 -86 17z"/>
<path d="M1066 958 c-55 -50 -24 -138 48 -138 80 1 110 98 44 144 -31 22 -62
20 -92 -6z"/>
</g>
</svg>
